StickNoBills-Italic.ufo
<glyph name="exclam" format="1">
  <advance width="329"/>
  <unicode hex="0021"/>
  <outline>
    <contour>
      <point x="129" y="166" type="line"/>
      <point x="223" y="700" type="line"/>
      <point x="352" y="700" type="line"/>
      <point x="258" y="166" type="line"/>
    </contour>
    <contour>
      <point x="97" y="53" type="curve" smooth="yes"/>
      <point x="104" y="95"/>
      <point x="144" y="129"/>
      <point x="186" y="129" type="curve" smooth="yes"/>
      <point x="228" y="129"/>
      <point x="254" y="95"/>
      <point x="247" y="53" type="curve" smooth="yes"/>
      <point x="240" y="11"/>
      <point x="201" y="-22"/>
      <point x="159" y="-22" type="curve" smooth="yes"/>
      <point x="117" y="-22"/>
      <point x="90" y="11"/>
    </contour>
  </outline>
</glyph>
<glyph name="quotedbl" format="1">
  <advance width="407"/>
  <unicode hex="0022"/>
  <outline>
    <contour>
      <point x="439" y="465" type="line"/>
      <point x="312" y="465" type="line"/>
      <point x="360" y="736" type="line"/>
      <point x="487" y="736" type="line"/>
    </contour>
    <contour>
      <point x="259" y="465" type="line"/>
      <point x="132" y="465" type="line"/>
      <point x="180" y="736" type="line"/>
      <point x="307" y="736" type="line"/>
    </contour>
  </outline>
</glyph>
<glyph name="Percent_sign" format="1">
  <advance width="629"/>
  <unicode hex="0025"/>
  <outline>
    <contour>
      <point x="408" y="117" type="curve" smooth="yes"/>
      <point x="419" y="177"/>
      <point x="475" y="225"/>
      <point x="535" y="225" type="curve" smooth="yes"/>
      <point x="595" y="225"/>
      <point x="635" y="177"/>
      <point x="624" y="117" type="curve" smooth="yes"/>
      <point x="613" y="57"/>
      <point x="557" y="9"/>
      <point x="497" y="9" type="curve" smooth="yes"/>
      <point x="437" y="9"/>
      <point x="397" y="57"/>
    </contour>
    <contour>
      <point x="127" y="575" type="curve" smooth="yes"/>
      <point x="138" y="635"/>
      <point x="194" y="683"/>
      <point x="254" y="683" type="curve" smooth="yes"/>
      <point x="314" y="683"/>
      <point x="354" y="635"/>
      <point x="343" y="575" type="curve" smooth="yes"/>
      <point x="332" y="515"/>
      <point x="276" y="467"/>
      <point x="216" y="467" type="curve" smooth="yes"/>
      <point x="156" y="467"/>
      <point x="116" y="515"/>
    </contour>
    <contour>
      <point x="156" y="-23" type="line"/>
      <point x="461" y="716" type="line"/>
      <point x="587" y="716" type="line"/>
      <point x="283" y="-23" type="line"/>
    </contour>
  </outline>
</glyph>
<glyph name="quotesingle" format="1">
  <advance width="227"/>
  <unicode hex="0027"/>
  <outline>
    <contour>
      <point x="259" y="465" type="line"/>
      <point x="132" y="465" type="line"/>
      <point x="180" y="736" type="line"/>
      <point x="307" y="736" type="line"/>
    </contour>
  </outline>
</glyph>
<glyph name="comma" format="1">
  <advance width="265"/>
  <unicode hex="002C"/>
  <outline>
    <contour>
      <point x="174" y="-23" type="line"/>
      <point x="47" y="-23" type="line"/>
      <point x="111" y="129" type="line"/>
      <point x="238" y="129" type="line"/>
    </contour>
  </outline>
</glyph>
<glyph name="hyphen" format="1">
  <advance width="416"/>
  <unicode hex="002D"/>
  <outline>
    <contour>
      <point x="429" y="357" type="line"/>
      <point x="407" y="230" type="line"/>
      <point x="91" y="230" type="line"/>
      <point x="113" y="357" type="line"/>
    </contour>
  </outline>
</glyph>
<glyph name="period" format="1">
  <advance width="250"/>
  <unicode hex="002E"/>
  <outline>
    <contour>
      <point x="59" y="53" type="curve" smooth="yes"/>
      <point x="66" y="95"/>
      <point x="106" y="129"/>
      <point x="148" y="129" type="curve" smooth="yes"/>
      <point x="190" y="129"/>
      <point x="216" y="95"/>
      <point x="209" y="53" type="curve" smooth="yes"/>
      <point x="202" y="11"/>
      <point x="163" y="-22"/>
      <point x="121" y="-22" type="curve" smooth="yes"/>
      <point x="79" y="-22"/>
      <point x="52" y="11"/>
    </contour>
  </outline>
</glyph>
<glyph name="one" format="1">
  <advance width="266"/>
  <unicode hex="0031"/>
  <outline>
    <contour>
      <point x="194" y="499" type="line"/>
      <point x="107" y="439" type="line"/>
      <point x="143" y="640" type="line"/>
      <point x="229" y="699" type="line"/>
      <point x="359" y="699" type="line"/>
      <point x="236" y="0" type="line"/>
      <point x="106" y="0" type="line"/>
    </contour>
  </outline>
</glyph>
<glyph name="five" format="1">
  <advance width="492"/>
  <unicode hex="0035"/>
  <outline>
    <contour>
      <point x="162" y="175" type="line"/>
      <point x="173" y="144"/>
      <point x="200" y="131"/>
      <point x="226" y="126" type="curve"/>
      <point x="204" y="0" type="line"/>
      <point x="120" y="0"/>
      <point x="68" y="46"/>
      <point x="47" y="107" type="curve"/>
    </contour>
    <contour>
      <point x="337" y="447" type="line"/>
      <point x="479" y="444"/>
      <point x="524" y="333"/>
      <point x="505" y="223" type="curve" smooth="yes"/>
      <point x="480" y="82"/>
      <point x="363" y="2"/>
      <point x="258" y="0" type="curve"/>
      <point x="280" y="126" type="line"/>
      <point x="331" y="135"/>
      <point x="368" y="174"/>
      <point x="377" y="224" type="curve" smooth="yes"/>
      <point x="387" y="280"/>
      <point x="352" y="319"/>
      <point x="315" y="324" type="curve"/>
    </contour>
    <contour>
      <point x="510" y="574" type="line"/>
      <point x="272" y="573" type="line"/>
      <point x="237" y="442" type="line"/>
      <point x="251" y="445"/>
      <point x="266" y="447"/>
      <point x="283" y="447" type="curve"/>
      <point x="261" y="324" type="line"/>
      <point x="226" y="321"/>
      <point x="201" y="301"/>
      <point x="186" y="286" type="curve"/>
      <point x="88" y="354" type="line"/>
      <point x="178" y="700" type="line"/>
      <point x="532" y="700" type="line"/>
    </contour>
  </outline>
</glyph>
<glyph name="seven" format="1">
  <advance width="435"/>
  <unicode hex="0037"/>
  <outline>
    <contour>
      <point x="302" y="450" type="curve"/>
      <point x="435" y="450" type="line"/>
      <point x="370" y="300"/>
      <point x="316" y="154"/>
      <point x="273" y="0" type="curve"/>
      <point x="136" y="0" type="line"/>
      <point x="181" y="158"/>
      <point x="233" y="295"/>
    </contour>
    <contour>
      <point x="143" y="698" type="line"/>
      <point x="532" y="698" type="line"/>
      <point x="510" y="573" type="line"/>
      <point x="496" y="562"/>
      <point x="471" y="529"/>
      <point x="461" y="510" type="curve"/>
      <point x="326" y="510" type="line"/>
      <point x="361" y="572" type="line"/>
      <point x="121" y="572" type="line"/>
    </contour>
  </outline>
</glyph>
<glyph name="eight" format="1">
  <advance width="486"/>
  <unicode hex="0038"/>
  <outline>
    <contour>
      <point x="234" y="125" type="curve"/>
      <point x="211" y="0" type="line"/>
      <point x="210" y="0" type="line" smooth="yes"/>
      <point x="170" y="0"/>
      <point x="35" y="53"/>
      <point x="61" y="199" type="curve" smooth="yes"/>
      <point x="73" y="269"/>
      <point x="122" y="330"/>
      <point x="153" y="349" type="curve"/>
      <point x="140" y="352"/>
      <point x="106" y="415"/>
      <point x="121" y="499" type="curve" smooth="yes"/>
      <point x="142" y="619"/>
      <point x="267" y="698"/>
      <point x="337" y="698" type="curve"/>
      <point x="315" y="571" type="line"/>
      <point x="296" y="568"/>
      <point x="255" y="551"/>
      <point x="245" y="497" type="curve" smooth="yes"/>
      <point x="236" y="446"/>
      <point x="252" y="424"/>
      <point x="286" y="413" type="curve"/>
      <point x="263" y="283" type="line"/>
      <point x="229" y="274"/>
      <point x="198" y="251"/>
      <point x="189" y="201" type="curve" smooth="yes"/>
      <point x="183" y="165"/>
      <point x="203" y="134"/>
    </contour>
    <contour>
      <point x="296" y="125" type="line"/>
      <point x="331" y="134"/>
      <point x="361" y="165"/>
      <point x="367" y="201" type="curve" smooth="yes"/>
      <point x="376" y="251"/>
      <point x="353" y="274"/>
      <point x="323" y="283" type="curve"/>
      <point x="346" y="413" type="line"/>
      <point x="384" y="424"/>
      <point x="408" y="446"/>
      <point x="417" y="497" type="curve" smooth="yes"/>
      <point x="427" y="551"/>
      <point x="390" y="568"/>
      <point x="373" y="571" type="curve"/>
      <point x="395" y="698" type="line"/>
      <point x="465" y="698"/>
      <point x="561" y="619"/>
      <point x="540" y="499" type="curve" smooth="yes"/>
      <point x="525" y="415"/>
      <point x="472" y="352"/>
      <point x="457" y="349" type="curve"/>
      <point x="482" y="330"/>
      <point x="507" y="269"/>
      <point x="495" y="199" type="curve" smooth="yes"/>
      <point x="469" y="53"/>
      <point x="316" y="0"/>
      <point x="276" y="0" type="curve" smooth="yes"/>
      <point x="275" y="0" type="line"/>
    </contour>
  </outline>
</glyph>
<glyph name="nine" format="1">
  <advance width="504"/>
  <unicode hex="0039"/>
  <outline>
    <contour>
      <point x="272" y="2" type="curve"/>
      <point x="294" y="127" type="line"/>
      <point x="369" y="142"/>
      <point x="393" y="248"/>
      <point x="402" y="300" type="curve"/>
      <point x="380" y="285"/>
      <point x="350" y="274"/>
      <point x="320" y="274" type="curve"/>
      <point x="341" y="392" type="line"/>
      <point x="342" y="392" type="line"/>
      <point x="363" y="397"/>
      <point x="412" y="413"/>
      <point x="426" y="490" type="curve" smooth="yes"/>
      <point x="433" y="529"/>
      <point x="410" y="571"/>
      <point x="373" y="575" type="curve"/>
      <point x="395" y="700" type="line"/>
      <point x="570" y="700"/>
      <point x="568" y="513"/>
      <point x="538" y="341" type="curve" smooth="yes"/>
      <point x="517" y="224"/>
      <point x="445" y="6"/>
    </contour>
    <contour>
      <point x="173" y="178" type="line"/>
      <point x="190" y="150"/>
      <point x="198" y="132"/>
      <point x="240" y="127" type="curve"/>
      <point x="218" y="1" type="line"/>
      <point x="140" y="1"/>
      <point x="85" y="51"/>
      <point x="63" y="115" type="curve"/>
    </contour>
    <contour>
      <point x="266" y="274" type="line"/>
      <point x="142" y="274"/>
      <point x="90" y="359"/>
      <point x="112" y="485" type="curve" smooth="yes"/>
      <point x="134" y="610"/>
      <point x="240" y="699"/>
      <point x="341" y="700" type="curve"/>
      <point x="320" y="576" type="line"/>
      <point x="284" y="572"/>
      <point x="241" y="540"/>
      <point x="232" y="491" type="curve" smooth="yes"/>
      <point x="218" y="409"/>
      <point x="268" y="395"/>
      <point x="286" y="390" type="curve"/>
    </contour>
  </outline>
</glyph>
<glyph name="less" format="1">
  <advance width="414"/>
  <unicode hex="003C"/>
  <outline>
    <contour>
      <point x="472" y="500" type="line"/>
      <point x="449" y="370" type="line"/>
      <point x="259" y="292" type="line"/>
      <point x="420" y="206" type="line"/>
      <point x="398" y="79" type="line"/>
      <point x="75" y="258" type="line"/>
      <point x="87" y="322" type="line"/>
    </contour>
  </outline>
</glyph>
<glyph name="greater" format="1">
  <advance width="414"/>
  <unicode hex="003E"/>
  <outline>
    <contour>
      <point x="118" y="500" type="line"/>
      <point x="441" y="322" type="line"/>
      <point x="429" y="258" type="line"/>
      <point x="44" y="79" type="line"/>
      <point x="66" y="206" type="line"/>
      <point x="257" y="292" type="line"/>
      <point x="95" y="370" type="line"/>
    </contour>
  </outline>
</glyph>
<glyph name="question" format="1">
  <advance width="460"/>
  <unicode hex="003F"/>
  <outline>
    <contour>
      <point x="205" y="526" type="curve"/>
      <point x="138" y="611" type="line"/>
      <point x="175" y="649"/>
      <point x="234" y="703"/>
      <point x="342" y="703" type="curve" smooth="yes"/>
      <point x="470" y="703"/>
      <point x="536" y="620"/>
      <point x="517" y="491" type="curve" smooth="yes"/>
      <point x="516" y="488"/>
      <point x="516" y="484"/>
      <point x="515" y="481" type="curve" smooth="yes"/>
      <point x="481" y="289"/>
      <point x="312" y="276"/>
      <point x="312" y="276" type="curve"/>
      <point x="292" y="166" type="line"/>
      <point x="163" y="166" type="line"/>
      <point x="202" y="386" type="line"/>
      <point x="319" y="388"/>
      <point x="373" y="400"/>
      <point x="389" y="493" type="curve" smooth="yes"/>
      <point x="398" y="545"/>
      <point x="358" y="575"/>
      <point x="311" y="575" type="curve" smooth="yes"/>
      <point x="268" y="575"/>
      <point x="231" y="554"/>
    </contour>
    <contour>
      <point x="131" y="53" type="curve" smooth="yes"/>
      <point x="138" y="95"/>
      <point x="178" y="129"/>
      <point x="220" y="129" type="curve" smooth="yes"/>
      <point x="262" y="129"/>
      <point x="289" y="95"/>
      <point x="282" y="53" type="curve" smooth="yes"/>
      <point x="275" y="11"/>
      <point x="235" y="-22"/>
      <point x="193" y="-22" type="curve" smooth="yes"/>
      <point x="151" y="-22"/>
      <point x="124" y="11"/>
    </contour>
  </outline>
</glyph>
<glyph name="at" format="1">
  <advance width="803"/>
  <unicode hex="0040"/>
  <outline>
    <contour>
      <point x="685" y="103" type="curve"/>
      <point x="719" y="12" type="line"/>
      <point x="650" y="-45"/>
      <point x="523" y="-87"/>
      <point x="408" y="-87" type="curve" smooth="yes"/>
      <point x="180" y="-87"/>
      <point x="24" y="47"/>
      <point x="70" y="309" type="curve" smooth="yes"/>
      <point x="109" y="533"/>
      <point x="317" y="715"/>
      <point x="574" y="715" type="curve" smooth="yes"/>
      <point x="736" y="715"/>
      <point x="894" y="612"/>
      <point x="859" y="412" type="curve" smooth="yes"/>
      <point x="822" y="201"/>
      <point x="674" y="116"/>
      <point x="552" y="116" type="curve" smooth="yes"/>
      <point x="514" y="116"/>
      <point x="487" y="137"/>
      <point x="481" y="161" type="curve"/>
      <point x="463" y="139"/>
      <point x="427" y="116"/>
      <point x="364" y="116" type="curve" smooth="yes"/>
      <point x="288" y="116"/>
      <point x="239" y="193"/>
      <point x="256" y="289" type="curve" smooth="yes"/>
      <point x="283" y="444"/>
      <point x="419" y="519"/>
      <point x="501" y="519" type="curve" smooth="yes"/>
      <point x="565" y="519"/>
      <point x="582" y="493"/>
      <point x="594" y="477" type="curve"/>
      <point x="607" y="504" type="line"/>
      <point x="691" y="504" type="line"/>
      <point x="606" y="308" type="line" smooth="yes"/>
      <point x="601" y="297"/>
      <point x="594" y="280"/>
      <point x="592" y="266" type="curve" smooth="yes"/>
      <point x="589" y="249"/>
      <point x="591" y="240"/>
      <point x="605" y="240" type="curve" smooth="yes"/>
      <point x="640" y="240"/>
      <point x="716" y="280"/>
      <point x="739" y="412" type="curve" smooth="yes"/>
      <point x="760" y="530"/>
      <point x="655" y="602"/>
      <point x="557" y="602" type="curve" smooth="yes"/>
      <point x="390" y="602"/>
      <point x="221" y="481"/>
      <point x="191" y="312" type="curve" smooth="yes"/>
      <point x="157" y="122"/>
      <point x="264" y="22"/>
      <point x="418" y="22" type="curve" smooth="yes"/>
      <point x="505" y="22"/>
      <point x="595" y="47"/>
    </contour>
  </outline>
</glyph>
<glyph name="A" format="1">
  <advance width="516"/>
  <unicode hex="0041"/>
  <outline>
    <contour>
      <point x="323" y="699" type="line"/>
      <point x="462" y="699" type="line"/>
      <point x="490" y="0" type="line"/>
      <point x="353" y="0" type="line"/>
      <point x="348" y="85" type="line"/>
      <point x="254" y="85" type="line"/>
      <point x="308" y="223" type="line"/>
      <point x="344" y="223" type="line"/>
    </contour>
    <contour>
      <point x="258" y="582" type="line"/>
      <point x="273" y="582" type="line"/>
      <point x="283" y="302" type="line"/>
      <point x="164" y="0" type="line"/>
      <point x="26" y="0" type="line"/>
    </contour>
  </outline>
</glyph>
<glyph name="B" format="1">
  <advance width="484"/>
  <unicode hex="0042"/>
  <outline>
    <contour>
      <point x="149" y="700" type="line"/>
      <point x="290" y="700" type="line"/>
      <point x="167" y="0" type="line"/>
      <point x="26" y="0" type="line"/>
    </contour>
    <contour>
      <point x="243" y="122" type="line"/>
      <point x="330" y="122"/>
      <point x="355" y="179"/>
      <point x="360" y="205" type="curve" smooth="yes"/>
      <point x="364" y="227"/>
      <point x="362" y="289"/>
      <point x="272" y="289" type="curve"/>
      <point x="293" y="411" type="line"/>
      <point x="353" y="411"/>
      <point x="401" y="446"/>
      <point x="410" y="497" type="curve" smooth="yes"/>
      <point x="419" y="547"/>
      <point x="382" y="576"/>
      <point x="323" y="577" type="curve"/>
      <point x="344" y="700" type="line"/>
      <point x="352" y="701"/>
      <point x="361" y="701"/>
      <point x="369" y="701" type="curve" smooth="yes"/>
      <point x="521" y="701"/>
      <point x="556" y="574"/>
      <point x="545" y="514" type="curve"/>
      <point x="544" y="513" type="line"/>
      <point x="527" y="421"/>
      <point x="487" y="378"/>
      <point x="447" y="352" type="curve"/>
      <point x="480" y="322"/>
      <point x="508" y="285"/>
      <point x="493" y="201" type="curve" smooth="yes"/>
      <point x="493" y="199"/>
      <point x="493" y="198"/>
      <point x="493" y="197" type="curve" smooth="yes"/>
      <point x="472" y="86"/>
      <point x="366" y="-2"/>
      <point x="249" y="-2" type="curve" smooth="yes"/>
      <point x="240" y="-2"/>
      <point x="230" y="-1"/>
      <point x="221" y="0" type="curve"/>
    </contour>
  </outline>
</glyph>
<glyph name="D" format="1">
  <advance width="452"/>
  <unicode hex="0044"/>
  <outline>
    <contour>
      <point x="32" y="0" type="line"/>
      <point x="155" y="700" type="line"/>
      <point x="296" y="700" type="line"/>
      <point x="173" y="0" type="line"/>
    </contour>
    <contour>
      <point x="227" y="0" type="curve"/>
      <point x="252" y="141" type="line"/>
      <point x="258" y="141"/>
      <point x="309" y="149"/>
      <point x="318" y="197" type="curve" smooth="yes"/>
      <point x="372" y="503" type="line" smooth="yes"/>
      <point x="373" y="508"/>
      <point x="374" y="558"/>
      <point x="326" y="559" type="curve"/>
      <point x="350" y="700" type="line"/>
      <point x="493" y="700"/>
      <point x="524" y="566"/>
      <point x="513" y="503" type="curve" smooth="yes"/>
      <point x="459" y="197" type="line" smooth="yes"/>
      <point x="433" y="50"/>
      <point x="287" y="0"/>
    </contour>
  </outline>
</glyph>
<glyph name="E" format="1">
  <advance width="422"/>
  <unicode hex="0045"/>
  <outline>
    <contour>
      <point x="421" y="141" type="line"/>
      <point x="396" y="0" type="line"/>
      <point x="32" y="0" type="line"/>
      <point x="155" y="700" type="line"/>
      <point x="519" y="700" type="line"/>
      <point x="495" y="560" type="line"/>
      <point x="272" y="560" type="line"/>
      <point x="247" y="418" type="line"/>
      <point x="376" y="418" type="line"/>
      <point x="351" y="277" type="line"/>
      <point x="222" y="277" type="line"/>
      <point x="198" y="141" type="line"/>
    </contour>
  </outline>
</glyph>
<glyph name="F" format="1">
  <advance width="422"/>
  <unicode hex="0046"/>
  <outline>
    <contour>
      <point x="376" y="418" type="line"/>
      <point x="351" y="277" type="line"/>
      <point x="222" y="277" type="line"/>
      <point x="173" y="1" type="line"/>
      <point x="32" y="1" type="line"/>
      <point x="155" y="700" type="line"/>
      <point x="519" y="700" type="line"/>
      <point x="495" y="560" type="line"/>
      <point x="272" y="560" type="line"/>
      <point x="247" y="418" type="line"/>
    </contour>
  </outline>
</glyph>
<glyph name="J" format="1">
  <advance width="495"/>
  <unicode hex="004A"/>
  <outline>
    <contour>
      <point x="266" y="-5" type="curve"/>
      <point x="291" y="137" type="line"/>
      <point x="296" y="137"/>
      <point x="348" y="147"/>
      <point x="357" y="193" type="curve" smooth="yes"/>
      <point x="446" y="700" type="line"/>
      <point x="586" y="700" type="line"/>
      <point x="497" y="193" type="line" smooth="yes"/>
      <point x="472" y="49"/>
      <point x="326" y="-5"/>
    </contour>
    <contour>
      <point x="212" y="-5" type="line"/>
      <point x="152" y="-5"/>
      <point x="35" y="54"/>
      <point x="60" y="193" type="curve" smooth="yes"/>
      <point x="69" y="242" type="line"/>
      <point x="210" y="242" type="line"/>
      <point x="201" y="193" type="line" smooth="yes"/>
      <point x="194" y="147"/>
      <point x="232" y="137"/>
      <point x="237" y="137" type="curve"/>
    </contour>
  </outline>
</glyph>
<glyph name="K" format="1">
  <advance width="475"/>
  <unicode hex="004B"/>
  <outline>
    <contour>
      <point x="149" y="700" type="line"/>
      <point x="290" y="700" type="line"/>
      <point x="167" y="0" type="line"/>
      <point x="26" y="0" type="line"/>
    </contour>
    <contour>
      <point x="437" y="700" type="line"/>
      <point x="576" y="700" type="line"/>
      <point x="407" y="341" type="line"/>
      <point x="457" y="0" type="line"/>
      <point x="319" y="0" type="line"/>
      <point x="267" y="341" type="line"/>
    </contour>
  </outline>
</glyph>
<glyph name="M" format="1">
  <advance width="676"/>
  <unicode hex="004D"/>
  <outline>
    <contour>
      <point x="626" y="700" type="line"/>
      <point x="767" y="700" type="line"/>
      <point x="644" y="0" type="line"/>
      <point x="503" y="0" type="line"/>
    </contour>
    <contour>
      <point x="155" y="700" type="line"/>
      <point x="265" y="700" type="line"/>
      <point x="375" y="237" type="line"/>
      <point x="523" y="476" type="line"/>
      <point x="533" y="476" type="line"/>
      <point x="476" y="151" type="line"/>
      <point x="382" y="0" type="line"/>
      <point x="285" y="0" type="line"/>
      <point x="139" y="608" type="line"/>
    </contour>
    <contour>
      <point x="32" y="0" type="line"/>
      <point x="110" y="444" type="line"/>
      <point x="119" y="444" type="line"/>
      <point x="195" y="127" type="line"/>
      <point x="173" y="0" type="line"/>
    </contour>
  </outline>
</glyph>
<glyph name="N" format="1">
  <advance width="509"/>
  <unicode hex="004E"/>
  <outline>
    <contour>
      <point x="155" y="700" type="line"/>
      <point x="270" y="700" type="line"/>
      <point x="507" y="168" type="line"/>
      <point x="477" y="0" type="line"/>
      <point x="410" y="0" type="line"/>
      <point x="139" y="608" type="line"/>
    </contour>
    <contour>
      <point x="600" y="700" type="line"/>
      <point x="527" y="284" type="line"/>
      <point x="519" y="284" type="line"/>
      <point x="424" y="498" type="line"/>
      <point x="459" y="700" type="line"/>
    </contour>
    <contour>
      <point x="32" y="0" type="line"/>
      <point x="119" y="492" type="line"/>
      <point x="127" y="492" type="line"/>
      <point x="222" y="278" type="line"/>
      <point x="173" y="0" type="line"/>
    </contour>
  </outline>
</glyph>
<glyph name="O" format="1">
  <advance width="508"/>
  <unicode hex="004F"/>
  <outline>
    <contour>
      <point x="280" y="-5" type="curve"/>
      <point x="305" y="137" type="line"/>
      <point x="310" y="137"/>
      <point x="362" y="149"/>
      <point x="371" y="195" type="curve" smooth="yes"/>
      <point x="427" y="508" type="line" smooth="yes"/>
      <point x="428" y="513"/>
      <point x="426" y="563"/>
      <point x="380" y="564" type="curve"/>
      <point x="405" y="705" type="line"/>
      <point x="536" y="705"/>
      <point x="580" y="583"/>
      <point x="570" y="524" type="curve" smooth="yes"/>
      <point x="512" y="195" type="line" smooth="yes"/>
      <point x="487" y="51"/>
      <point x="340" y="-5"/>
    </contour>
    <contour>
      <point x="225" y="-5" type="line"/>
      <point x="165" y="-5"/>
      <point x="39" y="51"/>
      <point x="64" y="195" type="curve" smooth="yes"/>
      <point x="122" y="524" type="line" smooth="yes"/>
      <point x="133" y="584"/>
      <point x="219" y="705"/>
      <point x="351" y="705" type="curve"/>
      <point x="326" y="564" type="line"/>
      <point x="280" y="563"/>
      <point x="262" y="513"/>
      <point x="261" y="508" type="curve" smooth="yes"/>
      <point x="205" y="195" type="line" smooth="yes"/>
      <point x="197" y="149"/>
      <point x="245" y="137"/>
      <point x="250" y="137" type="curve"/>
    </contour>
  </outline>
</glyph>
<glyph name="P" format="1">
  <advance width="474"/>
  <unicode hex="0050"/>
  <outline>
    <contour>
      <point x="149" y="700" type="line"/>
      <point x="290" y="700" type="line"/>
      <point x="167" y="0" type="line"/>
      <point x="26" y="0" type="line"/>
    </contour>
    <contour>
      <point x="302" y="457" type="line"/>
      <point x="335" y="457" type="line" smooth="yes"/>
      <point x="342" y="457"/>
      <point x="386" y="458"/>
      <point x="395" y="508" type="curve" smooth="yes"/>
      <point x="404" y="559"/>
      <point x="362" y="561"/>
      <point x="353" y="561" type="curve" smooth="yes"/>
      <point x="320" y="561" type="line"/>
      <point x="344" y="700" type="line"/>
      <point x="525" y="700"/>
      <point x="558" y="626"/>
      <point x="538" y="512" type="curve" smooth="yes"/>
      <point x="513" y="369"/>
      <point x="434" y="318"/>
      <point x="277" y="318" type="curve"/>
    </contour>
  </outline>
</glyph>
<glyph name="Q" format="1">
  <advance width="500"/>
  <unicode hex="0051"/>
  <outline>
    <contour>
      <point x="413" y="47" type="curve"/>
      <point x="454" y="-32" type="line"/>
      <point x="329" y="-107" type="line"/>
      <point x="276" y="-5" type="line"/>
      <point x="301" y="137" type="line"/>
      <point x="306" y="137"/>
      <point x="358" y="149"/>
      <point x="367" y="195" type="curve" smooth="yes"/>
      <point x="423" y="508" type="line" smooth="yes"/>
      <point x="424" y="513"/>
      <point x="422" y="563"/>
      <point x="376" y="564" type="curve"/>
      <point x="401" y="705" type="line"/>
      <point x="532" y="705"/>
      <point x="576" y="583"/>
      <point x="566" y="524" type="curve" smooth="yes"/>
      <point x="508" y="195" type="line" smooth="yes"/>
      <point x="496" y="127"/>
      <point x="458" y="79"/>
    </contour>
    <contour>
      <point x="221" y="-5" type="line"/>
      <point x="161" y="-5"/>
      <point x="35" y="51"/>
      <point x="60" y="195" type="curve" smooth="yes"/>
      <point x="118" y="524" type="line" smooth="yes"/>
      <point x="129" y="584"/>
      <point x="215" y="705"/>
      <point x="347" y="705" type="curve"/>
      <point x="322" y="564" type="line"/>
      <point x="276" y="563"/>
      <point x="258" y="513"/>
      <point x="257" y="508" type="curve" smooth="yes"/>
      <point x="201" y="195" type="line" smooth="yes"/>
      <point x="193" y="149"/>
      <point x="241" y="137"/>
      <point x="246" y="137" type="curve"/>
    </contour>
  </outline>
</glyph>
<glyph name="T" format="1">
  <advance width="485"/>
  <unicode hex="0054"/>
  <outline>
    <contour>
      <point x="582" y="700" type="line"/>
      <point x="558" y="562" type="line"/>
      <point x="412" y="562" type="line"/>
      <point x="313" y="0" type="line"/>
      <point x="172" y="0" type="line"/>
      <point x="271" y="562" type="line"/>
      <point x="125" y="562" type="line"/>
      <point x="149" y="700" type="line"/>
    </contour>
  </outline>
</glyph>
<glyph name="U" format="1">
  <advance width="512"/>
  <unicode hex="0055"/>
  <outline>
    <contour>
      <point x="282" y="-5" type="curve"/>
      <point x="307" y="137" type="line"/>
      <point x="312" y="137"/>
      <point x="364" y="147"/>
      <point x="373" y="193" type="curve" smooth="yes"/>
      <point x="462" y="700" type="line"/>
      <point x="602" y="700" type="line"/>
      <point x="513" y="193" type="line" smooth="yes"/>
      <point x="487" y="48"/>
      <point x="343" y="-5"/>
    </contour>
    <contour>
      <point x="228" y="-5" type="line"/>
      <point x="168" y="-5"/>
      <point x="41" y="49"/>
      <point x="66" y="193" type="curve" smooth="yes"/>
      <point x="155" y="700" type="line"/>
      <point x="296" y="700" type="line"/>
      <point x="207" y="193" type="line" smooth="yes"/>
      <point x="200" y="147"/>
      <point x="248" y="137"/>
      <point x="253" y="137" type="curve"/>
    </contour>
  </outline>
</glyph>
<glyph name="W" format="1">
  <advance width="725"/>
  <unicode hex="0057"/>
  <outline>
    <contour>
      <point x="822" y="700" type="line"/>
      <point x="627" y="290" type="line"/>
      <point x="617" y="290" type="line"/>
      <point x="591" y="514" type="line"/>
      <point x="678" y="700" type="line"/>
    </contour>
    <contour>
      <point x="362" y="700" type="line"/>
      <point x="506" y="700" type="line"/>
      <point x="569" y="158" type="line"/>
      <point x="489" y="0" type="line"/>
      <point x="442" y="0" type="line"/>
    </contour>
    <contour>
      <point x="149" y="700" type="line"/>
      <point x="293" y="700" type="line"/>
      <point x="356" y="158" type="line"/>
      <point x="276" y="0" type="line"/>
      <point x="229" y="0" type="line"/>
    </contour>
  </outline>
</glyph>
<glyph name="Y" format="1">
  <advance width="479"/>
  <unicode hex="0059"/>
  <outline>
    <contour>
      <point x="369" y="565" type="line"/>
      <point x="431" y="700" type="line"/>
      <point x="576" y="700" type="line"/>
      <point x="402" y="331" type="line"/>
      <point x="393" y="331" type="line"/>
    </contour>
    <contour>
      <point x="149" y="700" type="line"/>
      <point x="296" y="700" type="line"/>
      <point x="348" y="253" type="line"/>
      <point x="303" y="0" type="line"/>
      <point x="157" y="0" type="line"/>
      <point x="201" y="252" type="line"/>
    </contour>
  </outline>
</glyph>
<glyph name="Z" format="1">
  <advance width="418"/>
  <unicode hex="005A"/>
  <outline>
    <contour>
      <point x="207" y="144" type="line"/>
      <point x="417" y="144" type="line"/>
      <point x="392" y="0" type="line"/>
      <point x="26" y="0" type="line"/>
      <point x="51" y="141" type="line"/>
      <point x="335" y="560" type="line"/>
      <point x="125" y="560" type="line"/>
      <point x="149" y="700" type="line"/>
      <point x="515" y="700" type="line"/>
      <point x="491" y="563" type="line"/>
    </contour>
  </outline>
</glyph>
<glyph name="underscore" format="1">
  <advance width="510"/>
  <unicode hex="005F"/>
  <outline>
    <contour>
      <point x="444" y="-205" type="line"/>
      <point x="-6" y="-205" type="line"/>
      <point x="13" y="-98" type="line"/>
      <point x="463" y="-98" type="line"/>
    </contour>
  </outline>
</glyph>
<glyph name="d" format="1">
  <advance width="414"/>
  <unicode hex="0064"/>
  <outline>
    <contour>
      <point x="384" y="0" type="line"/>
      <point x="258" y="0" type="line"/>
      <point x="381" y="698" type="line"/>
      <point x="507" y="698" type="line"/>
    </contour>
    <contour>
      <point x="271" y="516" type="curve" smooth="yes"/>
      <point x="301" y="516" type="line"/>
      <point x="280" y="398" type="line"/>
      <point x="250" y="398" type="line" smooth="yes"/>
      <point x="223" y="397"/>
      <point x="214" y="375"/>
      <point x="214" y="373" type="curve" smooth="yes"/>
      <point x="173" y="143" type="line" smooth="yes"/>
      <point x="173" y="141"/>
      <point x="175" y="118"/>
      <point x="203" y="118" type="curve" smooth="yes"/>
      <point x="231" y="118" type="line"/>
      <point x="210" y="0" type="line"/>
      <point x="182" y="0" type="line" smooth="yes"/>
      <point x="78" y="0"/>
      <point x="47" y="97"/>
      <point x="55" y="141" type="curve" smooth="yes"/>
      <point x="96" y="377" type="line" smooth="yes"/>
      <point x="105" y="422"/>
      <point x="170" y="516"/>
    </contour>
  </outline>
</glyph>
<glyph name="e" format="1">
  <advance width="424"/>
  <unicode hex="0065"/>
  <outline>
    <contour>
      <point x="236" y="0" type="line"/>
      <point x="256" y="111" type="line"/>
      <point x="262" y="111" type="line" smooth="yes"/>
      <point x="293" y="113"/>
      <point x="317" y="132"/>
      <point x="325" y="153" type="curve" smooth="yes"/>
      <point x="327" y="157" type="line"/>
      <point x="419" y="120" type="line"/>
      <point x="418" y="118" type="line"/>
      <point x="392" y="54"/>
      <point x="312" y="0"/>
      <point x="242" y="0" type="curve" smooth="yes"/>
    </contour>
    <contour>
      <point x="311" y="402" type="curve" smooth="yes"/>
      <point x="307" y="402" type="line"/>
      <point x="327" y="516" type="line"/>
      <point x="333" y="516" type="line" smooth="yes"/>
      <point x="403" y="516"/>
      <point x="477" y="450"/>
      <point x="464" y="378" type="curve" smooth="yes"/>
      <point x="434" y="208" type="line"/>
      <point x="185" y="208" type="line"/>
      <point x="173" y="141" type="line" smooth="yes"/>
      <point x="172" y="138"/>
      <point x="174" y="109"/>
      <point x="202" y="108" type="curve" smooth="yes"/>
      <point x="207" y="108" type="line"/>
      <point x="188" y="0" type="line"/>
      <point x="183" y="0" type="line" smooth="yes"/>
      <point x="79" y="0"/>
      <point x="43" y="96"/>
      <point x="51" y="141" type="curve" smooth="yes"/>
      <point x="92" y="377" type="line" smooth="yes"/>
      <point x="101" y="422"/>
      <point x="171" y="516"/>
      <point x="273" y="516" type="curve" smooth="yes"/>
      <point x="278" y="516" type="line"/>
      <point x="258" y="400" type="line"/>
      <point x="255" y="400" type="line" smooth="yes"/>
      <point x="226" y="400"/>
      <point x="215" y="380"/>
      <point x="213" y="369" type="curve" smooth="yes"/>
      <point x="205" y="324" type="line"/>
      <point x="340" y="324" type="line"/>
      <point x="348" y="369" type="line" smooth="yes"/>
      <point x="353" y="396"/>
      <point x="331" y="402"/>
    </contour>
  </outline>
</glyph>
<glyph name="f" format="1">
  <advance width="304"/>
  <unicode hex="0066"/>
  <outline>
    <contour>
      <point x="186" y="552" type="line" smooth="yes"/>
      <point x="194" y="597"/>
      <point x="263" y="695"/>
      <point x="366" y="696" type="curve" smooth="yes"/>
      <point x="402" y="696" type="line"/>
      <point x="379" y="579" type="line"/>
      <point x="346" y="579" type="line" smooth="yes"/>
      <point x="318" y="578"/>
      <point x="309" y="555"/>
      <point x="308" y="552" type="curve" smooth="yes"/>
      <point x="302" y="515" type="line"/>
      <point x="368" y="516" type="line"/>
      <point x="348" y="400" type="line"/>
      <point x="282" y="400" type="line"/>
      <point x="211" y="0" type="line"/>
      <point x="89" y="0" type="line"/>
      <point x="160" y="400" type="line"/>
      <point x="97" y="400" type="line"/>
      <point x="117" y="516" type="line"/>
      <point x="180" y="516" type="line"/>
    </contour>
  </outline>
</glyph>
<glyph name="g" format="1">
  <advance width="415"/>
  <unicode hex="0067"/>
  <outline>
    <contour>
      <point x="280" y="516" type="curve" smooth="yes"/>
      <point x="283" y="516" type="line"/>
      <point x="263" y="403" type="line"/>
      <point x="260" y="403" type="line" smooth="yes"/>
      <point x="228" y="403"/>
      <point x="217" y="378"/>
      <point x="216" y="375" type="curve" smooth="yes"/>
      <point x="175" y="140" type="line" smooth="yes"/>
      <point x="174" y="137"/>
      <point x="178" y="112"/>
      <point x="209" y="112" type="curve" smooth="yes"/>
      <point x="212" y="112" type="line"/>
      <point x="192" y="-1" type="line"/>
      <point x="189" y="-1" type="line" smooth="yes"/>
      <point x="84" y="-1"/>
      <point x="52" y="96"/>
      <point x="60" y="139" type="curve" smooth="yes"/>
      <point x="102" y="378" type="line" smooth="yes"/>
      <point x="111" y="422"/>
      <point x="176" y="516"/>
    </contour>
    <contour>
      <point x="204" y="-181" type="curve" smooth="yes"/>
      <point x="13" y="-181" type="line"/>
      <point x="37" y="-69" type="line"/>
      <point x="222" y="-69" type="line" smooth="yes"/>
      <point x="253" y="-68"/>
      <point x="264" y="-43"/>
      <point x="265" y="-40" type="curve" smooth="yes"/>
      <point x="273" y="3" type="line"/>
      <point x="260" y="0"/>
      <point x="248" y="-1"/>
      <point x="234" y="-1" type="curve" smooth="yes"/>
      <point x="231" y="-1" type="line"/>
      <point x="250" y="109" type="line"/>
      <point x="253" y="109" type="line" smooth="yes"/>
      <point x="284" y="110"/>
      <point x="296" y="136"/>
      <point x="297" y="139" type="curve" smooth="yes"/>
      <point x="338" y="374" type="line" smooth="yes"/>
      <point x="339" y="377"/>
      <point x="336" y="403"/>
      <point x="305" y="403" type="curve" smooth="yes"/>
      <point x="302" y="403" type="line"/>
      <point x="322" y="516" type="line"/>
      <point x="325" y="516" type="line" smooth="yes"/>
      <point x="338" y="516"/>
      <point x="352" y="514"/>
      <point x="362" y="511" type="curve"/>
      <point x="363" y="516" type="line"/>
      <point x="480" y="516" type="line"/>
      <point x="382" y="-40" type="line" smooth="yes"/>
      <point x="374" y="-83"/>
      <point x="307" y="-180"/>
    </contour>
  </outline>
</glyph>
<glyph name="h" format="1">
  <advance width="421"/>
  <unicode hex="0068"/>
  <outline>
    <contour>
      <point x="328" y="511" type="line"/>
      <point x="331" y="511" type="line"/>
      <point x="427" y="507"/>
      <point x="473" y="444"/>
      <point x="461" y="374" type="curve" smooth="yes"/>
      <point x="395" y="1" type="line"/>
      <point x="281" y="1" type="line"/>
      <point x="345" y="365" type="line" smooth="yes"/>
      <point x="346" y="369"/>
      <point x="344" y="396"/>
      <point x="311" y="399" type="curve" smooth="yes"/>
      <point x="308" y="399" type="line"/>
    </contour>
    <contour>
      <point x="145" y="1" type="line"/>
      <point x="30" y="1" type="line"/>
      <point x="153" y="698" type="line"/>
      <point x="267" y="698" type="line"/>
      <point x="233" y="505" type="line"/>
      <point x="236" y="506" type="line" smooth="yes"/>
      <point x="249" y="509"/>
      <point x="266" y="511"/>
      <point x="280" y="511" type="curve" smooth="yes"/>
      <point x="283" y="511" type="line"/>
      <point x="263" y="399" type="line"/>
      <point x="260" y="399" type="line" smooth="yes"/>
      <point x="227" y="396"/>
      <point x="210" y="370"/>
      <point x="209" y="365" type="curve" smooth="yes"/>
    </contour>
  </outline>
</glyph>
<glyph name="i" format="1">
  <advance width="199"/>
  <unicode hex="0069"/>
  <outline>
    <contour>
      <point x="161" y="0" type="line"/>
      <point x="39" y="0" type="line"/>
      <point x="130" y="516" type="line"/>
      <point x="252" y="516" type="line"/>
    </contour>
    <contour>
      <point x="283" y="630" type="curve" smooth="yes"/>
      <point x="276" y="591"/>
      <point x="237" y="558"/>
      <point x="197" y="558" type="curve" smooth="yes"/>
      <point x="157" y="558"/>
      <point x="130" y="591"/>
      <point x="137" y="630" type="curve" smooth="yes"/>
      <point x="144" y="670"/>
      <point x="183" y="703"/>
      <point x="223" y="703" type="curve" smooth="yes"/>
      <point x="263" y="703"/>
      <point x="290" y="670"/>
    </contour>
  </outline>
</glyph>
<glyph name="j" format="1">
  <advance width="194"/>
  <unicode hex="006A"/>
  <outline>
    <contour>
      <point x="281" y="628" type="curve" smooth="yes"/>
      <point x="274" y="588"/>
      <point x="235" y="556"/>
      <point x="195" y="556" type="curve" smooth="yes"/>
      <point x="155" y="556"/>
      <point x="128" y="588"/>
      <point x="135" y="628" type="curve" smooth="yes"/>
      <point x="142" y="668"/>
      <point x="181" y="702"/>
      <point x="221" y="702" type="curve" smooth="yes"/>
      <point x="261" y="702"/>
      <point x="288" y="668"/>
    </contour>
    <contour>
      <point x="152" y="-38" type="line" smooth="yes"/>
      <point x="144" y="-85"/>
      <point x="77" y="-181"/>
      <point x="-25" y="-181" type="curve" smooth="yes"/>
      <point x="-82" y="-181" type="line"/>
      <point x="-34" y="-64" type="line"/>
      <point x="-7" y="-64" type="line" smooth="yes"/>
      <point x="21" y="-63"/>
      <point x="30" y="-40"/>
      <point x="30" y="-38" type="curve" smooth="yes"/>
      <point x="128" y="516" type="line"/>
      <point x="250" y="516" type="line"/>
    </contour>
  </outline>
</glyph>
<glyph name="l" format="1">
  <advance width="184"/>
  <unicode hex="006C"/>
  <outline>
    <contour>
      <point x="161" y="0" type="line"/>
      <point x="30" y="0" type="line"/>
      <point x="153" y="698" type="line"/>
      <point x="284" y="698" type="line"/>
    </contour>
  </outline>
</glyph>
<glyph name="o" format="1">
  <advance width="420"/>
  <unicode hex="006F"/>
  <outline>
    <contour>
      <point x="303" y="398" type="line"/>
      <point x="324" y="516" type="line"/>
      <point x="330" y="516" type="line" smooth="yes"/>
      <point x="433" y="516"/>
      <point x="466" y="421"/>
      <point x="458" y="376" type="curve" smooth="yes"/>
      <point x="417" y="141" type="line" smooth="yes"/>
      <point x="409" y="96"/>
      <point x="343" y="-1"/>
      <point x="239" y="-1" type="curve" smooth="yes"/>
      <point x="233" y="-1" type="line"/>
      <point x="254" y="117" type="line"/>
      <point x="260" y="117" type="line" smooth="yes"/>
      <point x="291" y="118"/>
      <point x="300" y="141"/>
      <point x="302" y="152" type="curve" smooth="yes"/>
      <point x="339" y="363" type="line" smooth="yes"/>
      <point x="342" y="380"/>
      <point x="339" y="398"/>
      <point x="309" y="398" type="curve" smooth="yes"/>
    </contour>
    <contour>
      <point x="94" y="376" type="line" smooth="yes"/>
      <point x="102" y="421"/>
      <point x="170" y="516"/>
      <point x="277" y="516" type="curve" smooth="yes"/>
      <point x="283" y="516" type="line"/>
      <point x="262" y="398" type="line"/>
      <point x="256" y="398" type="line" smooth="yes"/>
      <point x="223" y="398"/>
      <point x="214" y="373"/>
      <point x="212" y="363" type="curve" smooth="yes"/>
      <point x="175" y="154" type="line" smooth="yes"/>
      <point x="172" y="135"/>
      <point x="177" y="117"/>
      <point x="207" y="117" type="curve" smooth="yes"/>
      <point x="213" y="117" type="line"/>
      <point x="192" y="-1" type="line"/>
      <point x="186" y="-1" type="line" smooth="yes"/>
      <point x="78" y="-1"/>
      <point x="45" y="97"/>
      <point x="53" y="141" type="curve" smooth="yes"/>
    </contour>
  </outline>
</glyph>
<glyph name="q" format="1">
  <advance width="416"/>
  <unicode hex="0071"/>
  <outline>
    <contour>
      <point x="476" y="516" type="line"/>
      <point x="354" y="-182" type="line"/>
      <point x="230" y="-182" type="line"/>
      <point x="352" y="516" type="line"/>
    </contour>
    <contour>
      <point x="171" y="143" type="line" smooth="yes"/>
      <point x="171" y="141"/>
      <point x="171" y="119"/>
      <point x="209" y="118" type="curve" smooth="yes"/>
      <point x="240" y="118" type="line"/>
      <point x="219" y="0" type="line"/>
      <point x="190" y="0" type="line" smooth="yes"/>
      <point x="77" y="0"/>
      <point x="44" y="93"/>
      <point x="51" y="139" type="curve" smooth="yes"/>
      <point x="92" y="375" type="line" smooth="yes"/>
      <point x="100" y="420"/>
      <point x="167" y="516"/>
      <point x="274" y="516" type="curve" smooth="yes"/>
      <point x="305" y="516" type="line"/>
      <point x="284" y="398" type="line"/>
      <point x="253" y="398" type="line" smooth="yes"/>
      <point x="221" y="398"/>
      <point x="212" y="375"/>
      <point x="212" y="373" type="curve" smooth="yes"/>
    </contour>
  </outline>
</glyph>
<glyph name="s" format="1">
  <advance width="418"/>
  <unicode hex="0073"/>
  <outline>
    <contour>
      <point x="254" y="406" type="line"/>
      <point x="252" y="406" type="line"/>
      <point x="211" y="402"/>
      <point x="205" y="377"/>
      <point x="202" y="362" type="curve" smooth="yes"/>
      <point x="199" y="344"/>
      <point x="210" y="323"/>
      <point x="346" y="296" type="curve" smooth="yes"/>
      <point x="396" y="286"/>
      <point x="440" y="243"/>
      <point x="425" y="160" type="curve" smooth="yes"/>
      <point x="407" y="57"/>
      <point x="320" y="-5"/>
      <point x="227" y="-5" type="curve" smooth="yes"/>
      <point x="224" y="-5" type="line"/>
      <point x="244" y="109" type="line"/>
      <point x="247" y="109" type="line" smooth="yes"/>
      <point x="262" y="110"/>
      <point x="301" y="120"/>
      <point x="307" y="153" type="curve" smooth="yes"/>
      <point x="315" y="198"/>
      <point x="204" y="206"/>
      <point x="152" y="232" type="curve" smooth="yes"/>
      <point x="107" y="256"/>
      <point x="76" y="287"/>
      <point x="91" y="371" type="curve" smooth="yes"/>
      <point x="109" y="473"/>
      <point x="216" y="517"/>
      <point x="270" y="517" type="curve" smooth="yes"/>
      <point x="273" y="517" type="line"/>
    </contour>
    <contour>
      <point x="454" y="376" type="curve"/>
      <point x="454" y="374" type="line"/>
      <point x="339" y="355" type="line"/>
      <point x="339" y="358" type="line" smooth="yes"/>
      <point x="342" y="399"/>
      <point x="305" y="404"/>
      <point x="297" y="404" type="curve" smooth="yes"/>
      <point x="294" y="404" type="line"/>
      <point x="315" y="517" type="line"/>
      <point x="318" y="517" type="line" smooth="yes"/>
      <point x="412" y="517"/>
      <point x="465" y="440"/>
    </contour>
    <contour>
      <point x="46" y="134" type="curve"/>
      <point x="45" y="136" type="line"/>
      <point x="161" y="157" type="line"/>
      <point x="160" y="154" type="line"/>
      <point x="159" y="135"/>
      <point x="177" y="113"/>
      <point x="201" y="111" type="curve"/>
      <point x="203" y="110" type="line"/>
      <point x="183" y="-5" type="line"/>
      <point x="180" y="-5" type="line" smooth="yes"/>
      <point x="86" y="-5"/>
      <point x="38" y="70"/>
    </contour>
  </outline>
</glyph>
<glyph name="t" format="1">
  <advance width="324"/>
  <unicode hex="0074"/>
  <outline>
    <contour>
      <point x="261" y="125" type="curve" smooth="yes"/>
      <point x="300" y="125" type="line"/>
      <point x="276" y="0" type="line"/>
      <point x="238" y="0" type="line" smooth="yes"/>
      <point x="116" y="1"/>
      <point x="96" y="66"/>
      <point x="114" y="168" type="curve" smooth="yes"/>
      <point x="154" y="398" type="line"/>
      <point x="91" y="398" type="line"/>
      <point x="112" y="516" type="line"/>
      <point x="175" y="516" type="line"/>
      <point x="207" y="700" type="line"/>
      <point x="329" y="700" type="line"/>
      <point x="297" y="516" type="line"/>
      <point x="357" y="516" type="line"/>
      <point x="336" y="398" type="line"/>
      <point x="276" y="398" type="line"/>
      <point x="234" y="159" type="line" smooth="yes"/>
      <point x="232" y="145"/>
      <point x="233" y="126"/>
    </contour>
  </outline>
</glyph>
<glyph name="w" format="1">
  <advance width="577"/>
  <unicode hex="0077"/>
  <outline>
    <contour>
      <point x="534" y="516" type="line"/>
      <point x="660" y="515" type="line"/>
      <point x="508" y="208" type="line"/>
      <point x="500" y="208" type="line"/>
      <point x="476" y="394" type="line"/>
    </contour>
    <contour>
      <point x="348" y="0" type="line"/>
      <point x="281" y="515" type="line"/>
      <point x="419" y="516" type="line"/>
      <point x="470" y="120" type="line"/>
      <point x="412" y="0" type="line"/>
    </contour>
    <contour>
      <point x="160" y="0" type="line"/>
      <point x="99" y="515" type="line"/>
      <point x="235" y="516" type="line"/>
      <point x="282" y="120" type="line"/>
      <point x="222" y="0" type="line"/>
    </contour>
  </outline>
</glyph>
<glyph name="x" format="1">
  <advance width="381"/>
  <unicode hex="0078"/>
  <outline>
    <contour>
      <point x="178" y="262" type="line"/>
      <point x="113" y="516" type="line"/>
      <point x="238" y="516" type="line"/>
      <point x="270" y="399" type="line"/>
      <point x="343" y="515" type="line"/>
      <point x="469" y="515" type="line"/>
      <point x="315" y="262" type="line"/>
      <point x="382" y="0" type="line"/>
      <point x="257" y="0" type="line"/>
      <point x="222" y="126" type="line"/>
      <point x="143" y="0" type="line"/>
      <point x="18" y="0" type="line"/>
    </contour>
  </outline>
</glyph>
<glyph name="y" format="1">
  <advance width="383"/>
  <unicode hex="0079"/>
  <outline>
    <contour>
      <point x="342" y="515" type="line"/>
      <point x="473" y="514" type="line"/>
      <point x="316" y="208" type="line"/>
      <point x="304" y="208" type="line"/>
      <point x="282" y="393" type="line"/>
    </contour>
    <contour>
      <point x="138" y="113" type="line"/>
      <point x="91" y="514" type="line"/>
      <point x="222" y="515" type="line"/>
      <point x="246" y="327" type="line" smooth="yes"/>
      <point x="246" y="328"/>
      <point x="247" y="328"/>
      <point x="247" y="329" type="curve" smooth="yes"/>
      <point x="272" y="111" type="line"/>
      <point x="123" y="-182" type="line"/>
      <point x="-3" y="-182" type="line"/>
    </contour>
  </outline>
</glyph>
<glyph name="z" format="1">
  <advance width="348"/>
  <unicode hex="007A"/>
  <outline>
    <contour>
      <point x="393" y="400" type="line"/>
      <point x="190" y="118" type="line"/>
      <point x="343" y="117" type="line"/>
      <point x="322" y="0" type="line"/>
      <point x="26" y="0" type="line"/>
      <point x="46" y="116" type="line"/>
      <point x="252" y="394" type="line"/>
      <point x="95" y="394" type="line"/>
      <point x="117" y="514" type="line"/>
      <point x="413" y="514" type="line"/>
    </contour>
  </outline>
</glyph>
<glyph name="bar" format="1">
  <advance width="205"/>
  <unicode hex="007C"/>
  <outline>
    <contour>
      <point x="183" y="754" type="line"/>
      <point x="288" y="754" type="line"/>
      <point x="131" y="-134" type="line"/>
      <point x="26" y="-134" type="line"/>
    </contour>
  </outline>
</glyph>
<glyph name="braceright" format="1">
  <advance width="407"/>
  <unicode hex="007D"/>
  <outline>
    <contour>
      <point x="230" y="735" type="line"/>
      <point x="339" y="735"/>
      <point x="421" y="715"/>
      <point x="384" y="504" type="curve" smooth="yes"/>
      <point x="367" y="408" type="line" smooth="yes"/>
      <point x="361" y="370"/>
      <point x="385" y="363"/>
      <point x="418" y="348" type="curve"/>
      <point x="379" y="329"/>
      <point x="352" y="322"/>
      <point x="346" y="290" type="curve" smooth="yes"/>
      <point x="329" y="192" type="line" smooth="yes"/>
      <point x="290" y="-31"/>
      <point x="200" y="-38"/>
      <point x="111" y="-38" type="curve" smooth="yes"/>
      <point x="105" y="-38"/>
      <point x="99" y="-38"/>
      <point x="93" y="-38" type="curve"/>
      <point x="111" y="61" type="line"/>
      <point x="165" y="61"/>
      <point x="184" y="87"/>
      <point x="205" y="208" type="curve" smooth="yes"/>
      <point x="222" y="304" type="line" smooth="yes"/>
      <point x="226" y="325"/>
      <point x="247" y="340"/>
      <point x="273" y="348" type="curve"/>
      <point x="250" y="354"/>
      <point x="233" y="366"/>
      <point x="236" y="383" type="curve" smooth="yes"/>
      <point x="236" y="384"/>
      <point x="236" y="384"/>
      <point x="236" y="384" type="curve"/>
      <point x="251" y="469" type="line" smooth="yes"/>
      <point x="272" y="591"/>
      <point x="280" y="635"/>
      <point x="212" y="635" type="curve"/>
    </contour>
  </outline>
</glyph>
<glyph name="asciitilde" format="1">
  <advance width="568"/>
  <unicode hex="007E"/>
  <outline>
    <contour>
      <point x="568" y="281" type="line"/>
      <point x="506" y="247"/>
      <point x="459" y="235"/>
      <point x="422" y="235" type="curve" smooth="yes"/>
      <point x="330" y="235"/>
      <point x="293" y="308"/>
      <point x="211" y="308" type="curve" smooth="yes"/>
      <point x="181" y="308"/>
      <point x="145" y="299"/>
      <point x="98" y="272" type="curve"/>
      <point x="121" y="405" type="line"/>
      <point x="171" y="431"/>
      <point x="210" y="440"/>
      <point x="241" y="440" type="curve" smooth="yes"/>
      <point x="328" y="440"/>
      <point x="364" y="367"/>
      <point x="452" y="367" type="curve" smooth="yes"/>
      <point x="487" y="367"/>
      <point x="531" y="379"/>
      <point x="591" y="412" type="curve"/>
    </contour>
  </outline>
</glyph>
<glyph name="exclamdown" format="1">
  <advance width="210"/>
  <unicode hex="00A1"/>
  <outline>
    <contour>
      <point x="132" y="534" type="line"/>
      <point x="261" y="534" type="line"/>
      <point x="167" y="0" type="line"/>
      <point x="38" y="0" type="line"/>
    </contour>
    <contour>
      <point x="140" y="647" type="curve" smooth="yes"/>
      <point x="147" y="689"/>
      <point x="186" y="722"/>
      <point x="228" y="722" type="curve" smooth="yes"/>
      <point x="270" y="722"/>
      <point x="297" y="689"/>
      <point x="290" y="647" type="curve" smooth="yes"/>
      <point x="283" y="605"/>
      <point x="244" y="571"/>
      <point x="202" y="571" type="curve" smooth="yes"/>
      <point x="160" y="571"/>
      <point x="133" y="605"/>
    </contour>
  </outline>
</glyph>
<glyph name="sterling" format="1">
  <advance width="520"/>
  <unicode hex="00A3"/>
  <outline>
    <contour>
      <point x="463" y="520" type="line"/>
      <point x="458" y="551"/>
      <point x="444" y="584"/>
      <point x="400" y="584" type="curve" smooth="yes"/>
      <point x="368" y="584"/>
      <point x="339" y="568"/>
      <point x="330" y="517" type="curve" smooth="yes"/>
      <point x="309" y="396" type="line"/>
      <point x="448" y="396" type="line"/>
      <point x="429" y="289" type="line"/>
      <point x="289" y="289" type="line"/>
      <point x="257" y="108" type="line"/>
      <point x="481" y="108" type="line"/>
      <point x="462" y="0" type="line"/>
      <point x="106" y="0" type="line"/>
      <point x="157" y="288" type="line"/>
      <point x="101" y="288" type="line"/>
      <point x="120" y="395" type="line"/>
      <point x="176" y="395" type="line"/>
      <point x="197" y="514" type="line" smooth="yes"/>
      <point x="215" y="617"/>
      <point x="285" y="705"/>
      <point x="415" y="705" type="curve" smooth="yes"/>
      <point x="416" y="705"/>
      <point x="416" y="705"/>
      <point x="417" y="705" type="curve" smooth="yes"/>
      <point x="445" y="705"/>
      <point x="469" y="700"/>
      <point x="488" y="691" type="curve" smooth="yes"/>
      <point x="542" y="668"/>
      <point x="568" y="618"/>
      <point x="571" y="570" type="curve"/>
    </contour>
  </outline>
</glyph>
<glyph name="yen" format="1">
  <advance width="542"/>
  <unicode hex="00A5"/>
  <outline>
    <contour>
      <point x="196" y="698" type="line"/>
      <point x="333" y="698" type="line"/>
      <point x="359" y="485" type="line"/>
      <point x="456" y="698" type="line"/>
      <point x="593" y="698" type="line"/>
      <point x="454" y="408" type="line"/>
      <point x="564" y="408" type="line"/>
      <point x="554" y="350" type="line"/>
      <point x="427" y="350" type="line"/>
      <point x="403" y="295" type="line"/>
      <point x="544" y="295" type="line"/>
      <point x="534" y="236" type="line"/>
      <point x="382" y="236" type="line"/>
      <point x="340" y="0" type="line"/>
      <point x="203" y="0" type="line"/>
      <point x="245" y="238" type="line"/>
      <point x="92" y="238" type="line"/>
      <point x="102" y="295" type="line"/>
      <point x="245" y="295" type="line"/>
      <point x="239" y="351" type="line"/>
      <point x="112" y="351" type="line"/>
      <point x="122" y="409" type="line"/>
      <point x="234" y="409" type="line"/>
    </contour>
  </outline>
</glyph>
<glyph name="brokenbar" format="1">
  <advance width="222"/>
  <unicode hex="00A6"/>
  <outline>
    <contour>
      <point x="89" y="221" type="line"/>
      <point x="211" y="221" type="line"/>
      <point x="148" y="-134" type="line"/>
      <point x="26" y="-134" type="line"/>
    </contour>
    <contour>
      <point x="183" y="754" type="line"/>
      <point x="305" y="754" type="line"/>
      <point x="242" y="399" type="line"/>
      <point x="120" y="399" type="line"/>
    </contour>
  </outline>
</glyph>
<glyph name="section" format="1">
  <advance width="547"/>
  <unicode hex="00A7"/>
  <outline>
    <contour>
      <point x="399" y="759" type="curve" smooth="yes"/>
      <point x="511" y="759" type="line"/>
      <point x="488" y="627" type="line"/>
      <point x="384" y="627" type="line" smooth="yes"/>
      <point x="351" y="627"/>
      <point x="326" y="606"/>
      <point x="321" y="576" type="curve" smooth="yes"/>
      <point x="317" y="555"/>
      <point x="325" y="540"/>
      <point x="339" y="527" type="curve"/>
      <point x="312" y="372" type="line"/>
      <point x="300" y="377"/>
      <point x="288" y="381"/>
      <point x="279" y="386" type="curve" smooth="yes"/>
      <point x="271" y="391"/>
      <point x="263" y="395"/>
      <point x="255" y="400" type="curve"/>
      <point x="244" y="392"/>
      <point x="234" y="380"/>
      <point x="230" y="357" type="curve" smooth="yes"/>
      <point x="222" y="314"/>
      <point x="255" y="290"/>
      <point x="294" y="272" type="curve"/>
      <point x="268" y="125" type="line"/>
      <point x="239" y="138"/>
      <point x="207" y="150"/>
      <point x="183" y="166" type="curve" smooth="yes"/>
      <point x="128" y="202"/>
      <point x="70" y="249"/>
      <point x="88" y="351" type="curve" smooth="yes"/>
      <point x="99" y="413"/>
      <point x="136" y="465"/>
      <point x="186" y="499" type="curve"/>
      <point x="183" y="519"/>
      <point x="184" y="543"/>
      <point x="189" y="571" type="curve" smooth="yes"/>
      <point x="214" y="710"/>
      <point x="331" y="759"/>
    </contour>
    <contour>
      <point x="402" y="223" type="curve"/>
      <point x="413" y="231"/>
      <point x="423" y="243"/>
      <point x="427" y="266" type="curve" smooth="yes"/>
      <point x="435" y="310"/>
      <point x="402" y="333"/>
      <point x="362" y="351" type="curve"/>
      <point x="388" y="498" type="line"/>
      <point x="417" y="485"/>
      <point x="449" y="473"/>
      <point x="474" y="457" type="curve" smooth="yes"/>
      <point x="529" y="421"/>
      <point x="587" y="374"/>
      <point x="569" y="272" type="curve" smooth="yes"/>
      <point x="558" y="210"/>
      <point x="521" y="158"/>
      <point x="471" y="124" type="curve"/>
      <point x="474" y="104"/>
      <point x="473" y="80"/>
      <point x="468" y="52" type="curve" smooth="yes"/>
      <point x="443" y="-87"/>
      <point x="326" y="-136"/>
      <point x="258" y="-136" type="curve" smooth="yes"/>
      <point x="146" y="-136" type="line"/>
      <point x="169" y="-4" type="line"/>
      <point x="273" y="-4" type="line" smooth="yes"/>
      <point x="306" y="-4"/>
      <point x="331" y="17"/>
      <point x="336" y="47" type="curve" smooth="yes"/>
      <point x="340" y="68"/>
      <point x="332" y="84"/>
      <point x="317" y="97" type="curve"/>
      <point x="344" y="252" type="line"/>
      <point x="356" y="247"/>
      <point x="368" y="242"/>
      <point x="378" y="237" type="curve" smooth="yes"/>
      <point x="386" y="232"/>
      <point x="394" y="228"/>
    </contour>
  </outline>
</glyph>
<glyph name="logicalnot" format="1">
  <advance width="502"/>
  <unicode hex="00AC"/>
  <outline>
    <contour>
      <point x="513" y="208" type="line"/>
      <point x="395" y="208" type="line"/>
      <point x="416" y="327" type="line"/>
      <point x="84" y="327" type="line"/>
      <point x="104" y="442" type="line"/>
      <point x="554" y="442" type="line"/>
    </contour>
  </outline>
</glyph>
<glyph name="registered" format="1">
  <advance width="404"/>
  <unicode hex="00AE"/>
  <outline>
    <contour>
      <point x="262" y="627" type="line"/>
      <point x="301" y="627" type="line"/>
      <point x="266" y="430" type="line"/>
      <point x="227" y="430" type="line"/>
    </contour>
    <contour>
      <point x="302" y="547" type="line"/>
      <point x="306" y="547" type="line" smooth="yes"/>
      <point x="323" y="547"/>
      <point x="332" y="557"/>
      <point x="334" y="568" type="curve" smooth="yes"/>
      <point x="336" y="582"/>
      <point x="328" y="591"/>
      <point x="314" y="591" type="curve" smooth="yes"/>
      <point x="310" y="591" type="line"/>
      <point x="317" y="628" type="line"/>
      <point x="359" y="628"/>
      <point x="377" y="604"/>
      <point x="371" y="570" type="curve" smooth="yes"/>
      <point x="368" y="551"/>
      <point x="358" y="538"/>
      <point x="344" y="530" type="curve"/>
      <point x="353" y="522"/>
      <point x="358" y="506"/>
      <point x="357" y="492" type="curve" smooth="yes"/>
      <point x="346" y="431" type="line"/>
      <point x="311" y="431" type="line"/>
      <point x="320" y="481" type="line" smooth="yes"/>
      <point x="324" y="504"/>
      <point x="316" y="511"/>
      <point x="296" y="511" type="curve"/>
    </contour>
    <contour>
      <point x="281" y="396" type="line"/>
      <point x="347" y="399"/>
      <point x="413" y="456"/>
      <point x="427" y="525" type="curve" smooth="yes"/>
      <point x="427" y="526"/>
      <point x="427" y="526"/>
      <point x="427" y="527" type="curve" smooth="yes"/>
      <point x="441" y="608"/>
      <point x="387" y="662"/>
      <point x="328" y="662" type="curve"/>
      <point x="335" y="703" type="line"/>
      <point x="401" y="702"/>
      <point x="487" y="641"/>
      <point x="467" y="528" type="curve" smooth="yes"/>
      <point x="467" y="526"/>
      <point x="466" y="525"/>
      <point x="466" y="523" type="curve" smooth="yes"/>
      <point x="448" y="423"/>
      <point x="351" y="357"/>
      <point x="273" y="354" type="curve"/>
    </contour>
    <contour>
      <point x="261" y="396" type="curve"/>
      <point x="254" y="354" type="line"/>
      <point x="173" y="355"/>
      <point x="106" y="432"/>
      <point x="122" y="523" type="curve" smooth="yes"/>
      <point x="122" y="524"/>
      <point x="123" y="524"/>
      <point x="123" y="525" type="curve" smooth="yes"/>
      <point x="145" y="649"/>
      <point x="257" y="703"/>
      <point x="317" y="703" type="curve" smooth="yes"/>
      <point x="318" y="703"/>
      <point x="318" y="703"/>
      <point x="319" y="703" type="curve" smooth="yes"/>
      <point x="312" y="662" type="line"/>
      <point x="253" y="662"/>
      <point x="178" y="609"/>
      <point x="163" y="526" type="curve" smooth="yes"/>
      <point x="152" y="457"/>
      <point x="197" y="399"/>
    </contour>
  </outline>
</glyph>
<glyph name="acute" format="1">
  <advance width="263"/>
  <unicode hex="00B4"/>
  <outline>
    <contour>
      <point x="159" y="605" type="line"/>
      <point x="68" y="605" type="line"/>
      <point x="105" y="757" type="line"/>
      <point x="232" y="757" type="line"/>
    </contour>
  </outline>
</glyph>
<glyph name="mu" format="1">
  <advance width="468"/>
  <unicode hex="00B5"/>
  <outline>
    <contour>
      <point x="399" y="700" type="line"/>
      <point x="523" y="700" type="line"/>
      <point x="523" y="698" type="line"/>
      <point x="458" y="328" type="line" smooth="yes"/>
      <point x="457" y="325"/>
      <point x="459" y="302"/>
      <point x="490" y="302" type="curve" smooth="yes"/>
      <point x="495" y="302" type="line"/>
      <point x="474" y="181" type="line"/>
      <point x="469" y="181" type="line" smooth="yes"/>
      <point x="429" y="181"/>
      <point x="399" y="194"/>
      <point x="377" y="213" type="curve"/>
      <point x="347" y="193"/>
      <point x="312" y="179"/>
      <point x="271" y="179" type="curve" smooth="yes"/>
      <point x="266" y="179" type="line"/>
      <point x="287" y="300" type="line"/>
      <point x="292" y="300" type="line" smooth="yes"/>
      <point x="323" y="300"/>
      <point x="333" y="324"/>
      <point x="333" y="326" type="curve" smooth="yes"/>
      <point x="399" y="698" type="line"/>
    </contour>
    <contour>
      <point x="149" y="698" type="line"/>
      <point x="273" y="698" type="line"/>
      <point x="213" y="356" type="line"/>
      <point x="207" y="326" type="line" smooth="yes"/>
      <point x="206" y="323"/>
      <point x="209" y="300"/>
      <point x="240" y="300" type="curve" smooth="yes"/>
      <point x="245" y="300" type="line"/>
      <point x="224" y="179" type="line"/>
      <point x="219" y="179" type="line" smooth="yes"/>
      <point x="206" y="179"/>
      <point x="193" y="180"/>
      <point x="182" y="183" type="curve"/>
      <point x="150" y="0" type="line"/>
      <point x="26" y="0" type="line"/>
      <point x="83" y="321" type="line"/>
      <point x="89" y="356" type="line"/>
    </contour>
  </outline>
</glyph>
<glyph name="paragraph" format="1">
  <advance width="444"/>
  <unicode hex="00B6"/>
  <outline>
    <contour>
      <point x="542" y="705" type="line"/>
      <point x="417" y="-5" type="line"/>
      <point x="334" y="-5" type="line"/>
      <point x="459" y="705" type="line"/>
    </contour>
    <contour>
      <point x="402" y="705" type="curve"/>
      <point x="277" y="-5" type="line"/>
      <point x="194" y="-5" type="line"/>
      <point x="253" y="329" type="line"/>
      <point x="149" y="329"/>
      <point x="97" y="403"/>
      <point x="117" y="517" type="curve" smooth="yes"/>
      <point x="135" y="617"/>
      <point x="217" y="705"/>
      <point x="319" y="705" type="curve" smooth="yes"/>
      <point x="347" y="705"/>
      <point x="374" y="705"/>
    </contour>
  </outline>
</glyph>
<glyph name="uni00B9" format="1">
  <advance width="186"/>
  <unicode hex="00B9"/>
  <outline>
    <contour>
      <point x="201" y="610" type="line"/>
      <point x="163" y="584" type="line"/>
      <point x="179" y="673" type="line"/>
      <point x="218" y="700" type="line"/>
      <point x="284" y="700" type="line"/>
      <point x="230" y="391" type="line"/>
      <point x="162" y="391" type="line"/>
    </contour>
  </outline>
</glyph>
<glyph name="ordmasculine" format="1">
  <advance width="230"/>
  <unicode hex="00BA"/>
  <outline>
    <contour>
      <point x="144" y="637" type="line" smooth="yes"/>
      <point x="148" y="658"/>
      <point x="178" y="700"/>
      <point x="226" y="700" type="curve" smooth="yes"/>
      <point x="231" y="700" type="line"/>
      <point x="222" y="645" type="line"/>
      <point x="217" y="645" type="line" smooth="yes"/>
      <point x="204" y="645"/>
      <point x="200" y="636"/>
      <point x="200" y="635" type="curve" smooth="yes"/>
      <point x="182" y="534" type="line" smooth="yes"/>
      <point x="182" y="533"/>
      <point x="184" y="525"/>
      <point x="196" y="525" type="curve" smooth="yes"/>
      <point x="201" y="525" type="line"/>
      <point x="191" y="470" type="line"/>
      <point x="186" y="470" type="line" smooth="yes"/>
      <point x="137" y="470"/>
      <point x="122" y="513"/>
      <point x="126" y="533" type="curve" smooth="yes"/>
    </contour>
    <contour>
      <point x="237" y="645" type="line"/>
      <point x="246" y="700" type="line"/>
      <point x="250" y="700" type="line" smooth="yes"/>
      <point x="296" y="700"/>
      <point x="312" y="658"/>
      <point x="308" y="637" type="curve" smooth="yes"/>
      <point x="290" y="533" type="line" smooth="yes"/>
      <point x="286" y="513"/>
      <point x="257" y="470"/>
      <point x="210" y="470" type="curve" smooth="yes"/>
      <point x="206" y="470" type="line"/>
      <point x="215" y="523" type="line"/>
      <point x="219" y="523" type="line" smooth="yes"/>
      <point x="231" y="523"/>
      <point x="235" y="532"/>
      <point x="235" y="533" type="curve" smooth="yes"/>
      <point x="253" y="635" type="line" smooth="yes"/>
      <point x="253" y="636"/>
      <point x="253" y="645"/>
      <point x="241" y="645" type="curve" smooth="yes"/>
    </contour>
    <contour>
      <point x="102" y="432" type="line"/>
      <point x="280" y="432" type="line"/>
      <point x="268" y="361" type="line"/>
      <point x="90" y="361" type="line"/>
    </contour>
  </outline>
</glyph>
<glyph name="onehalf" format="1">
  <advance width="581"/>
  <unicode hex="00BD"/>
  <outline>
    <contour>
      <point x="219" y="597" type="line"/>
      <point x="176" y="567" type="line"/>
      <point x="194" y="671" type="line"/>
      <point x="238" y="702" type="line"/>
      <point x="306" y="702" type="line"/>
      <point x="244" y="349" type="line"/>
      <point x="176" y="349" type="line"/>
    </contour>
    <contour>
      <point x="499" y="288" type="line"/>
      <point x="510" y="354" type="line"/>
      <point x="515" y="354" type="line" smooth="yes"/>
      <point x="593" y="354"/>
      <point x="604" y="290"/>
      <point x="598" y="251" type="curve" smooth="yes"/>
      <point x="588" y="197"/>
      <point x="561" y="180"/>
      <point x="527" y="159" type="curve" smooth="yes"/>
      <point x="488" y="134"/>
      <point x="466" y="119"/>
      <point x="444" y="93" type="curve" smooth="yes"/>
      <point x="443" y="92" type="line"/>
      <point x="364" y="92" type="line"/>
      <point x="366" y="94" type="line"/>
      <point x="407" y="156"/>
      <point x="462" y="184"/>
      <point x="479" y="196" type="curve" smooth="yes"/>
      <point x="505" y="215"/>
      <point x="529" y="220"/>
      <point x="534" y="251" type="curve" smooth="yes"/>
      <point x="538" y="275"/>
      <point x="527" y="287"/>
      <point x="500" y="288" type="curve" smooth="yes"/>
    </contour>
    <contour>
      <point x="562" y="65" type="line"/>
      <point x="551" y="-1" type="line"/>
      <point x="346" y="-1" type="line"/>
      <point x="357" y="65" type="line"/>
    </contour>
    <contour>
      <point x="26" y="-2" type="line"/>
      <point x="582" y="702" type="line"/>
      <point x="658" y="702" type="line"/>
      <point x="109" y="-2" type="line"/>
    </contour>
    <contour>
      <point x="473" y="288" type="line" smooth="yes"/>
      <point x="471" y="287"/>
      <point x="449" y="278"/>
      <point x="444" y="250" type="curve"/>
      <point x="444" y="248" type="line"/>
      <point x="383" y="261" type="line"/>
      <point x="384" y="263" type="line"/>
      <point x="397" y="306"/>
      <point x="435" y="347"/>
      <point x="484" y="353" type="curve"/>
      <point x="486" y="354" type="line"/>
      <point x="475" y="290" type="line"/>
      <point x="475" y="288" type="line"/>
    </contour>
  </outline>
</glyph>
<glyph name="threequarters" format="1">
  <advance width="584"/>
  <unicode hex="00BE"/>
  <outline>
    <contour>
      <point x="50" y="-2" type="line"/>
      <point x="606" y="702" type="line"/>
      <point x="682" y="702" type="line"/>
      <point x="133" y="-2" type="line"/>
    </contour>
    <contour>
      <point x="416" y="137" type="line"/>
      <point x="405" y="71" type="line"/>
      <point x="307" y="71" type="line"/>
      <point x="318" y="137" type="line"/>
      <point x="446" y="305" type="line"/>
      <point x="423" y="175" type="line"/>
      <point x="394" y="137" type="line"/>
    </contour>
    <contour>
      <point x="536" y="137" type="line"/>
      <point x="525" y="71" type="line"/>
      <point x="498" y="71" type="line"/>
      <point x="485" y="-1" type="line"/>
      <point x="417" y="-1" type="line"/>
      <point x="479" y="352" type="line"/>
      <point x="547" y="352" type="line"/>
      <point x="509" y="137" type="line"/>
    </contour>
    <contour>
      <point x="191" y="616" type="line"/>
      <point x="140" y="649" type="line"/>
      <point x="142" y="651" type="line"/>
      <point x="164" y="679"/>
      <point x="197" y="700"/>
      <point x="237" y="700" type="curve"/>
      <point x="226" y="635" type="line"/>
      <point x="225" y="635" type="line" smooth="yes"/>
      <point x="211" y="634"/>
      <point x="201" y="628"/>
      <point x="192" y="618" type="curve" smooth="yes"/>
    </contour>
    <contour>
      <point x="215" y="412" type="line" smooth="yes"/>
      <point x="236" y="412"/>
      <point x="253" y="431"/>
      <point x="256" y="450" type="curve" smooth="yes"/>
      <point x="261" y="479"/>
      <point x="254" y="492"/>
      <point x="195" y="492" type="curve"/>
      <point x="206" y="557" type="line"/>
      <point x="207" y="557" type="line" smooth="yes"/>
      <point x="267" y="557"/>
      <point x="278" y="571"/>
      <point x="283" y="600" type="curve" smooth="yes"/>
      <point x="288" y="626"/>
      <point x="269" y="636"/>
      <point x="255" y="636" type="curve" smooth="yes"/>
      <point x="252" y="636" type="line"/>
      <point x="264" y="701" type="line"/>
      <point x="264" y="700" type="line"/>
      <point x="332" y="698"/>
      <point x="357" y="642"/>
      <point x="350" y="604" type="curve" smooth="yes"/>
      <point x="342" y="557"/>
      <point x="324" y="534"/>
      <point x="307" y="525" type="curve"/>
      <point x="320" y="514"/>
      <point x="331" y="491"/>
      <point x="324" y="450" type="curve" smooth="yes"/>
      <point x="313" y="387"/>
      <point x="246" y="348"/>
      <point x="205" y="348" type="curve" smooth="yes"/>
      <point x="202" y="348" type="line"/>
      <point x="214" y="412" type="line"/>
    </contour>
    <contour>
      <point x="159" y="431" type="line" smooth="yes"/>
      <point x="164" y="421"/>
      <point x="172" y="415"/>
      <point x="186" y="414" type="curve" smooth="yes"/>
      <point x="187" y="414" type="line"/>
      <point x="175" y="348" type="line"/>
      <point x="174" y="348" type="line" smooth="yes"/>
      <point x="135" y="348"/>
      <point x="108" y="364"/>
      <point x="97" y="398" type="curve"/>
      <point x="96" y="399" type="line"/>
      <point x="158" y="432" type="line"/>
    </contour>
  </outline>
</glyph>
<glyph name="questiondown" format="1">
  <advance width="460"/>
  <unicode hex="00BF"/>
  <outline>
    <contour>
      <point x="234" y="636" type="curve" smooth="yes"/>
      <point x="241" y="678"/>
      <point x="280" y="711"/>
      <point x="322" y="711" type="curve" smooth="yes"/>
      <point x="364" y="711"/>
      <point x="392" y="678"/>
      <point x="385" y="636" type="curve" smooth="yes"/>
      <point x="378" y="594"/>
      <point x="338" y="560"/>
      <point x="296" y="560" type="curve" smooth="yes"/>
      <point x="254" y="560"/>
      <point x="227" y="594"/>
    </contour>
    <contour>
      <point x="141" y="163" type="line"/>
      <point x="157" y="135"/>
      <point x="187" y="114"/>
      <point x="230" y="114" type="curve" smooth="yes"/>
      <point x="277" y="114"/>
      <point x="328" y="144"/>
      <point x="337" y="196" type="curve" smooth="yes"/>
      <point x="353" y="289"/>
      <point x="304" y="301"/>
      <point x="187" y="303" type="curve"/>
      <point x="226" y="523" type="line"/>
      <point x="355" y="523" type="line"/>
      <point x="336" y="413" type="line"/>
      <point x="336" y="413"/>
      <point x="501" y="400"/>
      <point x="467" y="208" type="curve" smooth="yes"/>
      <point x="443" y="72"/>
      <point x="347" y="-14"/>
      <point x="216" y="-14" type="curve" smooth="yes"/>
      <point x="108" y="-14"/>
      <point x="67" y="40"/>
      <point x="44" y="78" type="curve"/>
    </contour>
  </outline>
</glyph>
<glyph name="Aring" format="1">
  <advance width="516"/>
  <unicode hex="00C5"/>
  <outline>
    <contour>
      <point x="258" y="582" type="line"/>
      <point x="273" y="582" type="line"/>
      <point x="283" y="302" type="line"/>
      <point x="164" y="0" type="line"/>
      <point x="26" y="0" type="line"/>
    </contour>
    <contour>
      <point x="372" y="765" type="curve" smooth="yes"/>
      <point x="369" y="747"/>
      <point x="380" y="733"/>
      <point x="398" y="733" type="curve" smooth="yes"/>
      <point x="416" y="733"/>
      <point x="433" y="747"/>
      <point x="436" y="765" type="curve" smooth="yes"/>
      <point x="439" y="783"/>
      <point x="428" y="797"/>
      <point x="410" y="797" type="curve" smooth="yes"/>
      <point x="392" y="797"/>
      <point x="375" y="783"/>
    </contour>
    <contour>
      <point x="308" y="765" type="curve" smooth="yes"/>
      <point x="317" y="818"/>
      <point x="368" y="861"/>
      <point x="421" y="861" type="curve" smooth="yes"/>
      <point x="474" y="861"/>
      <point x="509" y="818"/>
      <point x="500" y="765" type="curve" smooth="yes"/>
      <point x="495" y="739"/>
      <point x="481" y="716"/>
      <point x="462" y="699" type="curve"/>
      <point x="490" y="0" type="line"/>
      <point x="353" y="0" type="line"/>
      <point x="348" y="85" type="line"/>
      <point x="254" y="85" type="line"/>
      <point x="308" y="223" type="line"/>
      <point x="344" y="223" type="line"/>
      <point x="323" y="698" type="line"/>
      <point x="309" y="715"/>
      <point x="303" y="739"/>
    </contour>
  </outline>
</glyph>
<glyph name="Eth" format="1">
  <advance width="501"/>
  <unicode hex="00D0"/>
  <outline>
    <contour>
      <point x="298" y="420" type="line"/>
      <point x="354" y="420" type="line"/>
      <point x="331" y="292" type="line"/>
      <point x="275" y="292" type="line"/>
      <point x="224" y="0" type="line"/>
      <point x="83" y="0" type="line"/>
      <point x="134" y="292" type="line"/>
      <point x="77" y="292" type="line"/>
      <point x="100" y="420" type="line"/>
      <point x="157" y="420" type="line"/>
      <point x="206" y="700" type="line"/>
      <point x="347" y="700" type="line"/>
    </contour>
    <contour>
      <point x="278" y="0" type="curve"/>
      <point x="303" y="141" type="line"/>
      <point x="309" y="141"/>
      <point x="360" y="149"/>
      <point x="369" y="197" type="curve" smooth="yes"/>
      <point x="423" y="503" type="line" smooth="yes"/>
      <point x="424" y="508"/>
      <point x="425" y="558"/>
      <point x="377" y="559" type="curve"/>
      <point x="401" y="700" type="line"/>
      <point x="544" y="700"/>
      <point x="575" y="566"/>
      <point x="564" y="503" type="curve" smooth="yes"/>
      <point x="510" y="197" type="line" smooth="yes"/>
      <point x="484" y="50"/>
      <point x="338" y="0"/>
    </contour>
  </outline>
</glyph>
<glyph name="Oslash" format="1">
  <advance width="662"/>
  <unicode hex="00D8"/>
  <outline>
    <contour>
      <point x="700" y="658" type="line"/>
      <point x="763" y="570" type="line"/>
      <point x="640" y="474" type="line"/>
      <point x="590" y="195" type="line" smooth="yes"/>
      <point x="565" y="51"/>
      <point x="418" y="-5"/>
      <point x="358" y="-5" type="curve"/>
      <point x="383" y="137" type="line"/>
      <point x="388" y="137"/>
      <point x="440" y="149"/>
      <point x="449" y="195" type="curve" smooth="yes"/>
      <point x="476" y="347" type="line"/>
      <point x="284" y="197" type="line"/>
      <point x="283" y="195" type="line"/>
      <point x="275" y="149"/>
      <point x="323" y="137"/>
      <point x="328" y="137" type="curve"/>
      <point x="303" y="-5" type="line"/>
      <point x="260" y="-5"/>
      <point x="183" y="24"/>
      <point x="152" y="94" type="curve"/>
      <point x="86" y="43" type="line"/>
      <point x="23" y="131" type="line"/>
      <point x="148" y="228" type="line"/>
      <point x="200" y="524" type="line" smooth="yes"/>
      <point x="211" y="584"/>
      <point x="297" y="705"/>
      <point x="429" y="705" type="curve"/>
      <point x="404" y="564" type="line"/>
      <point x="358" y="563"/>
      <point x="340" y="513"/>
      <point x="339" y="508" type="curve" smooth="yes"/>
      <point x="312" y="356" type="line"/>
      <point x="504" y="505" type="line"/>
      <point x="505" y="508" type="line" smooth="yes"/>
      <point x="506" y="513"/>
      <point x="504" y="563"/>
      <point x="458" y="564" type="curve"/>
      <point x="483" y="705" type="line"/>
      <point x="565" y="705"/>
      <point x="613" y="658"/>
      <point x="635" y="607" type="curve"/>
    </contour>
  </outline>
</glyph>
<glyph name="ae" format="1">
  <advance width="666"/>
  <unicode hex="00E6"/>
  <outline>
    <contour>
      <point x="553" y="402" type="curve" smooth="yes"/>
      <point x="549" y="402" type="line"/>
      <point x="569" y="516" type="line"/>
      <point x="575" y="516" type="line" smooth="yes"/>
      <point x="645" y="516"/>
      <point x="719" y="450"/>
      <point x="706" y="378" type="curve" smooth="yes"/>
      <point x="676" y="208" type="line"/>
      <point x="421" y="208" type="line"/>
      <point x="409" y="143" type="line" smooth="yes"/>
      <point x="405" y="121"/>
      <point x="419" y="109"/>
      <point x="444" y="108" type="curve" smooth="yes"/>
      <point x="503" y="108" type="line" smooth="yes"/>
      <point x="536" y="108"/>
      <point x="560" y="134"/>
      <point x="569" y="157" type="curve"/>
      <point x="661" y="120" type="line"/>
      <point x="634" y="55"/>
      <point x="555" y="0"/>
      <point x="484" y="0" type="curve" smooth="yes"/>
      <point x="425" y="0" type="line" smooth="yes"/>
      <point x="380" y="0"/>
      <point x="346" y="9"/>
      <point x="326" y="30" type="curve"/>
      <point x="300" y="12"/>
      <point x="268" y="1"/>
      <point x="232" y="1" type="curve" smooth="yes"/>
      <point x="229" y="1" type="line"/>
      <point x="249" y="113" type="line"/>
      <point x="252" y="113" type="line" smooth="yes"/>
      <point x="282" y="114"/>
      <point x="293" y="146"/>
      <point x="294" y="149" type="curve" smooth="yes"/>
      <point x="308" y="227" type="line"/>
      <point x="266" y="205"/>
      <point x="186" y="190"/>
      <point x="171" y="183" type="curve" smooth="yes"/>
      <point x="164" y="180"/>
      <point x="158" y="173"/>
      <point x="156" y="162" type="curve" smooth="yes"/>
      <point x="153" y="149" type="line" smooth="yes"/>
      <point x="149" y="129"/>
      <point x="157" y="113"/>
      <point x="183" y="113" type="curve" smooth="yes"/>
      <point x="200" y="113" type="line"/>
      <point x="180" y="1" type="line"/>
      <point x="83" y="1"/>
      <point x="35" y="53"/>
      <point x="45" y="110" type="curve" smooth="yes"/>
      <point x="58" y="180" type="line" smooth="yes"/>
      <point x="64" y="213"/>
      <point x="74" y="233"/>
      <point x="120" y="257" type="curve" smooth="yes"/>
      <point x="167" y="282"/>
      <point x="323" y="311"/>
      <point x="330" y="351" type="curve" smooth="yes"/>
      <point x="332" y="363" type="line" smooth="yes"/>
      <point x="336" y="387"/>
      <point x="338" y="407"/>
      <point x="303" y="407" type="curve" smooth="yes"/>
      <point x="250" y="407" type="line" smooth="yes"/>
      <point x="227" y="407"/>
      <point x="207" y="390"/>
      <point x="200" y="353" type="curve"/>
      <point x="200" y="349" type="line"/>
      <point x="102" y="389" type="line"/>
      <point x="102" y="391" type="line"/>
      <point x="115" y="462"/>
      <point x="202" y="519"/>
      <point x="270" y="519" type="curve" smooth="yes"/>
      <point x="325" y="519" type="line" smooth="yes"/>
      <point x="365" y="519"/>
      <point x="394" y="504"/>
      <point x="414" y="483" type="curve"/>
      <point x="441" y="502"/>
      <point x="476" y="516"/>
      <point x="515" y="516" type="curve" smooth="yes"/>
      <point x="520" y="516" type="line"/>
      <point x="500" y="400" type="line"/>
      <point x="497" y="400" type="line" smooth="yes"/>
      <point x="471" y="400"/>
      <point x="455" y="385"/>
      <point x="450" y="373" type="curve" smooth="yes"/>
      <point x="441" y="324" type="line"/>
      <point x="582" y="324" type="line"/>
      <point x="590" y="369" type="line" smooth="yes"/>
      <point x="595" y="396"/>
      <point x="573" y="402"/>
    </contour>
  </outline>
</glyph>
<glyph name="igrave" format="1">
  <advance width="199"/>
  <unicode hex="00EC"/>
  <outline>
    <contour>
      <point x="153" y="577" type="line"/>
      <point x="106" y="729" type="line"/>
      <point x="234" y="729" type="line"/>
      <point x="243" y="577" type="line"/>
    </contour>
    <contour>
      <point x="161" y="0" type="line"/>
      <point x="39" y="0" type="line"/>
      <point x="130" y="516" type="line"/>
      <point x="252" y="516" type="line"/>
    </contour>
  </outline>
</glyph>
<glyph name="iacute" format="1">
  <advance width="199"/>
  <unicode hex="00ED"/>
  <outline>
    <contour>
      <point x="161" y="0" type="line"/>
      <point x="39" y="0" type="line"/>
      <point x="130" y="516" type="line"/>
      <point x="252" y="516" type="line"/>
    </contour>
    <contour>
      <point x="248" y="577" type="line"/>
      <point x="157" y="577" type="line"/>
      <point x="194" y="729" type="line"/>
      <point x="321" y="729" type="line"/>
    </contour>
  </outline>
</glyph>
<glyph name="idieresis" format="1">
  <advance width="199"/>
  <unicode hex="00EF"/>
  <outline>
    <contour>
      <point x="54" y="651" type="curve" smooth="yes"/>
      <point x="61" y="693"/>
      <point x="100" y="727"/>
      <point x="142" y="727" type="curve" smooth="yes"/>
      <point x="184" y="727"/>
      <point x="211" y="693"/>
      <point x="204" y="651" type="curve" smooth="yes"/>
      <point x="197" y="609"/>
      <point x="158" y="576"/>
      <point x="116" y="576" type="curve" smooth="yes"/>
      <point x="74" y="576"/>
      <point x="47" y="609"/>
    </contour>
    <contour>
      <point x="224" y="651" type="curve" smooth="yes"/>
      <point x="231" y="693"/>
      <point x="270" y="727"/>
      <point x="312" y="727" type="curve" smooth="yes"/>
      <point x="354" y="727"/>
      <point x="381" y="693"/>
      <point x="374" y="651" type="curve" smooth="yes"/>
      <point x="367" y="609"/>
      <point x="328" y="576"/>
      <point x="286" y="576" type="curve" smooth="yes"/>
      <point x="244" y="576"/>
      <point x="217" y="609"/>
    </contour>
    <contour>
      <point x="161" y="0" type="line"/>
      <point x="39" y="0" type="line"/>
      <point x="130" y="516" type="line"/>
      <point x="252" y="516" type="line"/>
    </contour>
  </outline>
</glyph>
<glyph name="eth" format="1">
  <advance width="420"/>
  <unicode hex="00F0"/>
  <outline>
    <contour>
      <point x="94" y="376" type="line" smooth="yes"/>
      <point x="102" y="421"/>
      <point x="170" y="516"/>
      <point x="277" y="516" type="curve" smooth="yes"/>
      <point x="283" y="516" type="line"/>
      <point x="262" y="398" type="line"/>
      <point x="256" y="398" type="line" smooth="yes"/>
      <point x="223" y="398"/>
      <point x="214" y="373"/>
      <point x="212" y="363" type="curve" smooth="yes"/>
      <point x="175" y="154" type="line" smooth="yes"/>
      <point x="172" y="135"/>
      <point x="177" y="117"/>
      <point x="207" y="117" type="curve" smooth="yes"/>
      <point x="213" y="117" type="line"/>
      <point x="192" y="-1" type="line"/>
      <point x="186" y="-1" type="line" smooth="yes"/>
      <point x="78" y="-1"/>
      <point x="45" y="97"/>
      <point x="53" y="141" type="curve" smooth="yes"/>
    </contour>
    <contour>
      <point x="365" y="558" type="curve"/>
      <point x="305" y="541" type="line"/>
      <point x="297" y="598" type="line"/>
      <point x="350" y="614" type="line"/>
      <point x="340" y="627"/>
      <point x="326" y="637"/>
      <point x="306" y="647" type="curve"/>
      <point x="318" y="714" type="line"/>
      <point x="374" y="703"/>
      <point x="417" y="679"/>
      <point x="443" y="641" type="curve"/>
      <point x="496" y="657" type="line"/>
      <point x="504" y="599" type="line"/>
      <point x="468" y="588" type="line"/>
      <point x="480" y="548"/>
      <point x="480" y="500"/>
      <point x="470" y="442" type="curve" smooth="yes"/>
      <point x="458" y="376" type="line"/>
      <point x="456" y="364" type="line"/>
      <point x="417" y="141" type="line" smooth="yes"/>
      <point x="409" y="96"/>
      <point x="343" y="-1"/>
      <point x="239" y="-1" type="curve" smooth="yes"/>
      <point x="233" y="-1" type="line"/>
      <point x="254" y="117" type="line"/>
      <point x="260" y="117" type="line" smooth="yes"/>
      <point x="291" y="118"/>
      <point x="300" y="141"/>
      <point x="302" y="152" type="curve" smooth="yes"/>
      <point x="339" y="363" type="line" smooth="yes"/>
      <point x="342" y="380"/>
      <point x="339" y="398"/>
      <point x="309" y="398" type="curve" smooth="yes"/>
      <point x="303" y="398" type="line"/>
      <point x="324" y="516" type="line"/>
      <point x="330" y="516" type="line" smooth="yes"/>
      <point x="342" y="516"/>
      <point x="353" y="515"/>
      <point x="363" y="512" type="curve"/>
      <point x="364" y="530"/>
      <point x="366" y="545"/>
    </contour>
  </outline>
</glyph>
<glyph name="thorn" format="1">
  <advance width="422"/>
  <unicode hex="00FE"/>
  <outline>
    <contour>
      <point x="153" y="700" type="line"/>
      <point x="278" y="700" type="line"/>
      <point x="123" y="-182" type="line"/>
      <point x="-2" y="-182" type="line"/>
    </contour>
    <contour>
      <point x="232" y="0" type="curve" smooth="yes"/>
      <point x="203" y="0" type="line"/>
      <point x="224" y="118" type="line"/>
      <point x="255" y="118" type="line" smooth="yes"/>
      <point x="292" y="119"/>
      <point x="299" y="134"/>
      <point x="301" y="143" type="curve" smooth="yes"/>
      <point x="342" y="372" type="line" smooth="yes"/>
      <point x="344" y="385"/>
      <point x="328" y="398"/>
      <point x="298" y="398" type="curve" smooth="yes"/>
      <point x="266" y="398" type="line"/>
      <point x="287" y="516" type="line"/>
      <point x="319" y="516" type="line" smooth="yes"/>
      <point x="426" y="516"/>
      <point x="472" y="431"/>
      <point x="462" y="375" type="curve" smooth="yes"/>
      <point x="421" y="139" type="line" smooth="yes"/>
      <point x="412" y="86"/>
      <point x="345" y="0"/>
    </contour>
  </outline>
</glyph>
<glyph name="dotlessi" format="1">
  <advance width="174"/>
  <unicode hex="0131"/>
  <outline>
    <contour>
      <point x="148" y="0" type="line"/>
      <point x="26" y="0" type="line"/>
      <point x="117" y="516" type="line"/>
      <point x="239" y="516" type="line"/>
    </contour>
  </outline>
</glyph>
<glyph name="lslash" format="1">
  <advance width="424"/>
  <unicode hex="0142"/>
  <outline>
    <contour>
      <point x="429" y="540" type="line"/>
      <point x="489" y="452" type="line"/>
      <point x="340" y="349" type="line"/>
      <point x="278" y="0" type="line"/>
      <point x="147" y="0" type="line"/>
      <point x="191" y="247" type="line"/>
      <point x="135" y="209" type="line"/>
      <point x="79" y="302" type="line"/>
      <point x="217" y="396" type="line"/>
      <point x="270" y="698" type="line"/>
      <point x="401" y="698" type="line"/>
      <point x="366" y="497" type="line"/>
    </contour>
  </outline>
</glyph>
<glyph name="OE" format="1">
  <advance width="724"/>
  <unicode hex="0152"/>
  <outline>
    <contour>
      <point x="222" y="0" type="line"/>
      <point x="162" y="0"/>
      <point x="36" y="56"/>
      <point x="61" y="200" type="curve" smooth="yes"/>
      <point x="118" y="519" type="line" smooth="yes"/>
      <point x="129" y="579"/>
      <point x="214" y="700"/>
      <point x="346" y="700" type="curve"/>
      <point x="322" y="559" type="line"/>
      <point x="276" y="558"/>
      <point x="257" y="508"/>
      <point x="256" y="503" type="curve" smooth="yes"/>
      <point x="202" y="200" type="line" smooth="yes"/>
      <point x="194" y="154"/>
      <point x="242" y="142"/>
      <point x="247" y="142" type="curve"/>
    </contour>
    <contour>
      <point x="723" y="141" type="line"/>
      <point x="698" y="0" type="line"/>
      <point x="277" y="0" type="line"/>
      <point x="302" y="142" type="line"/>
      <point x="359" y="142" type="line"/>
      <point x="433" y="559" type="line"/>
      <point x="376" y="559" type="line"/>
      <point x="400" y="700" type="line"/>
      <point x="821" y="700" type="line"/>
      <point x="797" y="560" type="line"/>
      <point x="574" y="560" type="line"/>
      <point x="549" y="418" type="line"/>
      <point x="678" y="418" type="line"/>
      <point x="653" y="277" type="line"/>
      <point x="524" y="277" type="line"/>
      <point x="500" y="141" type="line"/>
    </contour>
  </outline>
</glyph>
<glyph name="oe" format="1">
  <advance width="671"/>
  <unicode hex="0153"/>
  <outline>
    <contour>
      <point x="92" y="376" type="line" smooth="yes"/>
      <point x="100" y="421"/>
      <point x="168" y="516"/>
      <point x="275" y="516" type="curve" smooth="yes"/>
      <point x="281" y="516" type="line"/>
      <point x="260" y="398" type="line"/>
      <point x="254" y="398" type="line" smooth="yes"/>
      <point x="221" y="398"/>
      <point x="212" y="374"/>
      <point x="212" y="373" type="curve" smooth="yes"/>
      <point x="171" y="142" type="line" smooth="yes"/>
      <point x="170" y="139"/>
      <point x="174" y="113"/>
      <point x="204" y="113" type="curve" smooth="yes"/>
      <point x="210" y="113" type="line"/>
      <point x="190" y="-1" type="line"/>
      <point x="184" y="-1" type="line" smooth="yes"/>
      <point x="76" y="-1"/>
      <point x="43" y="97"/>
      <point x="51" y="141" type="curve" smooth="yes"/>
    </contour>
    <contour>
      <point x="558" y="402" type="curve" smooth="yes"/>
      <point x="554" y="402" type="line"/>
      <point x="574" y="516" type="line"/>
      <point x="580" y="516" type="line" smooth="yes"/>
      <point x="650" y="516"/>
      <point x="724" y="450"/>
      <point x="711" y="378" type="curve" smooth="yes"/>
      <point x="681" y="208" type="line"/>
      <point x="432" y="208" type="line"/>
      <point x="420" y="141" type="line" smooth="yes"/>
      <point x="419" y="138"/>
      <point x="421" y="109"/>
      <point x="449" y="108" type="curve" smooth="yes"/>
      <point x="508" y="108" type="line" smooth="yes"/>
      <point x="538" y="108"/>
      <point x="564" y="132"/>
      <point x="572" y="153" type="curve" smooth="yes"/>
      <point x="574" y="157" type="line"/>
      <point x="666" y="120" type="line"/>
      <point x="665" y="118" type="line"/>
      <point x="639" y="54"/>
      <point x="559" y="0"/>
      <point x="489" y="0" type="curve" smooth="yes"/>
      <point x="430" y="0" type="line" smooth="yes"/>
      <point x="390" y="0"/>
      <point x="361" y="14"/>
      <point x="340" y="34" type="curve"/>
      <point x="312" y="14"/>
      <point x="277" y="-1"/>
      <point x="237" y="-1" type="curve" smooth="yes"/>
      <point x="231" y="-1" type="line"/>
      <point x="251" y="113" type="line"/>
      <point x="257" y="113" type="line" smooth="yes"/>
      <point x="288" y="114"/>
      <point x="298" y="138"/>
      <point x="298" y="140" type="curve" smooth="yes"/>
      <point x="339" y="372" type="line" smooth="yes"/>
      <point x="340" y="375"/>
      <point x="337" y="398"/>
      <point x="307" y="398" type="curve" smooth="yes"/>
      <point x="301" y="398" type="line"/>
      <point x="322" y="516" type="line"/>
      <point x="328" y="516" type="line" smooth="yes"/>
      <point x="368" y="516"/>
      <point x="398" y="502"/>
      <point x="418" y="482" type="curve"/>
      <point x="447" y="502"/>
      <point x="481" y="516"/>
      <point x="520" y="516" type="curve" smooth="yes"/>
      <point x="525" y="516" type="line"/>
      <point x="505" y="400" type="line"/>
      <point x="502" y="400" type="line" smooth="yes"/>
      <point x="473" y="400"/>
      <point x="462" y="380"/>
      <point x="460" y="369" type="curve" smooth="yes"/>
      <point x="452" y="324" type="line"/>
      <point x="587" y="324" type="line"/>
      <point x="595" y="369" type="line" smooth="yes"/>
      <point x="600" y="396"/>
      <point x="578" y="402"/>
    </contour>
  </outline>
</glyph>
<glyph name="florin" format="1">
  <advance width="382"/>
  <unicode hex="0192"/>
  <outline>
    <contour>
      <point x="238" y="552" type="line" smooth="yes"/>
      <point x="246" y="597"/>
      <point x="315" y="695"/>
      <point x="418" y="696" type="curve" smooth="yes"/>
      <point x="458" y="696" type="line"/>
      <point x="431" y="579" type="line"/>
      <point x="398" y="579" type="line" smooth="yes"/>
      <point x="370" y="578"/>
      <point x="361" y="555"/>
      <point x="360" y="552" type="curve" smooth="yes"/>
      <point x="354" y="515" type="line"/>
      <point x="420" y="516" type="line"/>
      <point x="400" y="400" type="line"/>
      <point x="334" y="400" type="line"/>
      <point x="264" y="7" type="line"/>
      <point x="263" y="0" type="line"/>
      <point x="258" y="-30" type="line" smooth="yes"/>
      <point x="247" y="-92"/>
      <point x="191" y="-168"/>
      <point x="79" y="-168" type="curve" smooth="yes"/>
      <point x="17" y="-168" type="line"/>
      <point x="42" y="-63" type="line"/>
      <point x="97" y="-63" type="line" smooth="yes"/>
      <point x="125" y="-62"/>
      <point x="134" y="-39"/>
      <point x="135" y="-36" type="curve" smooth="yes"/>
      <point x="141" y="0" type="line"/>
      <point x="142" y="7" type="line"/>
      <point x="212" y="400" type="line"/>
      <point x="149" y="400" type="line"/>
      <point x="169" y="516" type="line"/>
      <point x="232" y="516" type="line"/>
    </contour>
  </outline>
</glyph>
<glyph name="circumflex" format="1">
  <advance width="270"/>
  <unicode hex="02C6"/>
  <outline>
    <contour>
      <point x="117" y="514" type="line"/>
      <point x="218" y="666" type="line"/>
      <point x="284" y="666" type="line"/>
      <point x="335" y="514" type="line"/>
      <point x="253" y="514" type="line"/>
      <point x="235" y="571" type="line"/>
      <point x="198" y="514" type="line"/>
    </contour>
  </outline>
</glyph>
<glyph name="ring" format="1">
  <advance width="244"/>
  <unicode hex="02DA"/>
  <outline>
    <contour>
      <point x="119" y="526" type="curve" smooth="yes"/>
      <point x="128" y="579"/>
      <point x="179" y="622"/>
      <point x="232" y="622" type="curve" smooth="yes"/>
      <point x="285" y="622"/>
      <point x="320" y="579"/>
      <point x="311" y="526" type="curve" smooth="yes"/>
      <point x="302" y="473"/>
      <point x="251" y="430"/>
      <point x="198" y="430" type="curve" smooth="yes"/>
      <point x="145" y="430"/>
      <point x="110" y="473"/>
    </contour>
    <contour>
      <point x="183" y="526" type="curve" smooth="yes"/>
      <point x="180" y="508"/>
      <point x="191" y="494"/>
      <point x="209" y="494" type="curve" smooth="yes"/>
      <point x="227" y="494"/>
      <point x="244" y="508"/>
      <point x="247" y="526" type="curve" smooth="yes"/>
      <point x="250" y="544"/>
      <point x="238" y="558"/>
      <point x="220" y="558" type="curve" smooth="yes"/>
      <point x="202" y="558"/>
      <point x="186" y="544"/>
    </contour>
  </outline>
</glyph>
<glyph name="tilde" format="1">
  <advance width="333"/>
  <unicode hex="02DC"/>
  <outline>
    <contour>
      <point x="327" y="114" type="line"/>
      <point x="289" y="93"/>
      <point x="261" y="86"/>
      <point x="238" y="86" type="curve" smooth="yes"/>
      <point x="185" y="86"/>
      <point x="162" y="126"/>
      <point x="114" y="126" type="curve" smooth="yes"/>
      <point x="96" y="126"/>
      <point x="73" y="120"/>
      <point x="44" y="104" type="curve"/>
      <point x="62" y="206" type="line"/>
      <point x="93" y="222"/>
      <point x="117" y="228"/>
      <point x="136" y="228" type="curve" smooth="yes"/>
      <point x="187" y="228"/>
      <point x="209" y="187"/>
      <point x="260" y="187" type="curve" smooth="yes"/>
      <point x="282" y="187"/>
      <point x="308" y="195"/>
      <point x="345" y="215" type="curve"/>
    </contour>
  </outline>
</glyph>
<glyph name="dagger" format="1">
  <advance width="453"/>
  <unicode hex="2020"/>
  <outline>
    <contour>
      <point x="529" y="577" type="line"/>
      <point x="506" y="450" type="line"/>
      <point x="376" y="450" type="line"/>
      <point x="287" y="-56" type="line"/>
      <point x="146" y="-56" type="line"/>
      <point x="235" y="450" type="line"/>
      <point x="105" y="450" type="line"/>
      <point x="128" y="577" type="line"/>
      <point x="258" y="577" type="line"/>
      <point x="291" y="764" type="line"/>
      <point x="432" y="764" type="line"/>
      <point x="399" y="577" type="line"/>
    </contour>
  </outline>
</glyph>
<glyph name="daggerdbl" format="1">
  <advance width="453"/>
  <unicode hex="2021"/>
  <outline>
    <contour>
      <point x="291" y="764" type="line"/>
      <point x="432" y="764" type="line"/>
      <point x="399" y="577" type="line"/>
      <point x="529" y="577" type="line"/>
      <point x="506" y="450" type="line"/>
      <point x="376" y="450" type="line"/>
      <point x="342" y="258" type="line"/>
      <point x="472" y="258" type="line"/>
      <point x="450" y="131" type="line"/>
      <point x="320" y="131" type="line"/>
      <point x="287" y="-56" type="line"/>
      <point x="146" y="-56" type="line"/>
      <point x="179" y="131" type="line"/>
      <point x="49" y="131" type="line"/>
      <point x="71" y="258" type="line"/>
      <point x="201" y="258" type="line"/>
      <point x="235" y="450" type="line"/>
      <point x="105" y="450" type="line"/>
      <point x="128" y="577" type="line"/>
      <point x="258" y="577" type="line"/>
    </contour>
  </outline>
</glyph>
<glyph name="bullet" format="1">
  <advance width="352"/>
  <unicode hex="2022"/>
  <outline>
    <contour>
      <point x="87" y="344" type="curve" smooth="yes"/>
      <point x="102" y="428"/>
      <point x="179" y="496"/>
      <point x="263" y="496" type="curve" smooth="yes"/>
      <point x="347" y="496"/>
      <point x="402" y="428"/>
      <point x="387" y="344" type="curve" smooth="yes"/>
      <point x="372" y="260"/>
      <point x="294" y="194"/>
      <point x="210" y="194" type="curve" smooth="yes"/>
      <point x="126" y="194"/>
      <point x="72" y="260"/>
    </contour>
  </outline>
</glyph>
<glyph name="guilsinglleft" format="1">
  <advance width="338"/>
  <unicode hex="2039"/>
  <outline>
    <contour>
      <point x="245" y="500" type="line"/>
      <point x="400" y="500" type="line"/>
      <point x="232" y="292" type="line"/>
      <point x="326" y="79" type="line"/>
      <point x="171" y="79" type="line"/>
      <point x="77" y="292" type="line"/>
    </contour>
  </outline>
</glyph>
<glyph name="guilsinglright" format="1">
  <advance width="338"/>
  <unicode hex="203A"/>
  <outline>
    <contour>
      <point x="269" y="500" type="line"/>
      <point x="363" y="292" type="line"/>
      <point x="195" y="79" type="line"/>
      <point x="40" y="79" type="line"/>
      <point x="208" y="292" type="line"/>
      <point x="114" y="500" type="line"/>
    </contour>
  </outline>
</glyph>
<glyph name="EURO" format="1">
  <advance width="567"/>
  <unicode hex="20AC"/>
  <outline>
    <contour>
      <point x="338" y="2" type="curve"/>
      <point x="363" y="142" type="line"/>
      <point x="393" y="151"/>
      <point x="410" y="165"/>
      <point x="416" y="199" type="curve" smooth="yes"/>
      <point x="422" y="237" type="line"/>
      <point x="550" y="186" type="line"/>
      <point x="545" y="156"/>
      <point x="519" y="102"/>
      <point x="475" y="64" type="curve" smooth="yes"/>
      <point x="430" y="25"/>
      <point x="387" y="3"/>
    </contour>
    <contour>
      <point x="461" y="698" type="line"/>
      <point x="510" y="697"/>
      <point x="545" y="675"/>
      <point x="576" y="636" type="curve" smooth="yes"/>
      <point x="606" y="598"/>
      <point x="613" y="544"/>
      <point x="608" y="514" type="curve"/>
      <point x="462" y="463" type="line"/>
      <point x="469" y="501" type="line" smooth="yes"/>
      <point x="475" y="535"/>
      <point x="462" y="549"/>
      <point x="436" y="558" type="curve"/>
    </contour>
    <contour>
      <point x="401" y="698" type="curve"/>
      <point x="376" y="558" type="line"/>
      <point x="334" y="543"/>
      <point x="330" y="532"/>
      <point x="322" y="488" type="curve" smooth="yes"/>
      <point x="313" y="436" type="line"/>
      <point x="485" y="436" type="line"/>
      <point x="474" y="376" type="line"/>
      <point x="302" y="376" type="line"/>
      <point x="292" y="317" type="line"/>
      <point x="464" y="317" type="line"/>
      <point x="453" y="258" type="line"/>
      <point x="281" y="258" type="line"/>
      <point x="272" y="202" type="line" smooth="yes"/>
      <point x="264" y="155"/>
      <point x="281" y="154"/>
      <point x="303" y="141" type="curve"/>
      <point x="278" y="2" type="line"/>
      <point x="198" y="8"/>
      <point x="176" y="45"/>
      <point x="150" y="90" type="curve" smooth="yes"/>
      <point x="134" y="118"/>
      <point x="127" y="149"/>
      <point x="131" y="182" type="curve" smooth="yes"/>
      <point x="144" y="258" type="line"/>
      <point x="95" y="258" type="line"/>
      <point x="106" y="317" type="line"/>
      <point x="155" y="317" type="line"/>
      <point x="165" y="377" type="line"/>
      <point x="116" y="377" type="line"/>
      <point x="127" y="436" type="line"/>
      <point x="176" y="436" type="line"/>
      <point x="186" y="496" type="line" smooth="yes"/>
      <point x="194" y="540"/>
      <point x="207" y="576"/>
      <point x="242" y="613" type="curve" smooth="yes"/>
      <point x="289" y="666"/>
      <point x="340" y="696"/>
    </contour>
  </outline>
</glyph>
<glyph name="fi" format="1">
  <advance width="494"/>
  <unicode hex="FB01"/>
  <outline>
    <contour>
      <point x="186" y="552" type="line" smooth="yes"/>
      <point x="194" y="597"/>
      <point x="263" y="695"/>
      <point x="366" y="696" type="curve" smooth="yes"/>
      <point x="427" y="696" type="line"/>
      <point x="397" y="579" type="line"/>
      <point x="346" y="579" type="line" smooth="yes"/>
      <point x="318" y="578"/>
      <point x="309" y="555"/>
      <point x="308" y="552" type="curve" smooth="yes"/>
      <point x="302" y="516" type="line"/>
      <point x="548" y="516" type="line"/>
      <point x="457" y="0" type="line"/>
      <point x="335" y="0" type="line"/>
      <point x="406" y="400" type="line"/>
      <point x="282" y="400" type="line"/>
      <point x="211" y="0" type="line"/>
      <point x="89" y="0" type="line"/>
      <point x="160" y="400" type="line"/>
      <point x="97" y="400" type="line"/>
      <point x="117" y="516" type="line"/>
      <point x="180" y="516" type="line"/>
    </contour>
    <contour>
      <point x="579" y="630" type="curve" smooth="yes"/>
      <point x="572" y="591"/>
      <point x="533" y="558"/>
      <point x="493" y="558" type="curve" smooth="yes"/>
      <point x="453" y="558"/>
      <point x="426" y="591"/>
      <point x="433" y="630" type="curve" smooth="yes"/>
      <point x="440" y="670"/>
      <point x="479" y="703"/>
      <point x="519" y="703" type="curve" smooth="yes"/>
      <point x="559" y="703"/>
      <point x="586" y="670"/>
    </contour>
  </outline>
</glyph>
<glyph name="quotedbl.alt" format="1">
  <advance width="359"/>
  <outline>
    <contour>
      <point x="417" y="476" type="line"/>
      <point x="290" y="476" type="line"/>
      <point x="329" y="700" type="line"/>
      <point x="456" y="700" type="line"/>
    </contour>
    <contour>
      <point x="237" y="476" type="line"/>
      <point x="110" y="476" type="line"/>
      <point x="149" y="700" type="line"/>
      <point x="276" y="700" type="line"/>
    </contour>
  </outline>
</glyph>
